<?xml version="1.0" encoding="UTF-8" standalone="no"?>
<!-- Created with Inkscape (http://www.inkscape.org/) -->

<svg
   xmlns:dc="http://purl.org/dc/elements/1.1/"
   xmlns:cc="http://creativecommons.org/ns#"
   xmlns:rdf="http://www.w3.org/1999/02/22-rdf-syntax-ns#"
   xmlns:svg="http://www.w3.org/2000/svg"
   xmlns="http://www.w3.org/2000/svg"
   xmlns:sodipodi="http://sodipodi.sourceforge.net/DTD/sodipodi-0.dtd"
   xmlns:inkscape="http://www.inkscape.org/namespaces/inkscape"
   version="1.1"
   id="svg2"
   width="778"
   height="1280"
   viewBox="0 0 778 1280"
   sodipodi:docname="SplashScreen.svg"
   inkscape:version="0.92.2 5c3e80d, 2017-08-06">
  <metadata
     id="metadata8">
    <rdf:RDF>
      <cc:Work
         rdf:about="">
        <dc:format>image/svg+xml</dc:format>
        <dc:type
           rdf:resource="http://purl.org/dc/dcmitype/StillImage" />
        <dc:title></dc:title>
      </cc:Work>
    </rdf:RDF>
  </metadata>
  <defs
     id="defs6" />
  <sodipodi:namedview
     pagecolor="#ffffff"
     bordercolor="#666666"
     borderopacity="1"
     objecttolerance="10"
     gridtolerance="10"
     guidetolerance="10"
     inkscape:pageopacity="0"
     inkscape:pageshadow="2"
     inkscape:window-width="1920"
     inkscape:window-height="1017"
     id="namedview4"
     showgrid="false"
     inkscape:zoom="0.40891546"
     inkscape:cx="-413.73978"
     inkscape:cy="471.12279"
     inkscape:window-x="0"
     inkscape:window-y="27"
     inkscape:window-maximized="1"
     inkscape:current-layer="svg2" />
  <g
     id="g937"
     transform="matrix(0.63740062,0,0,0.63740062,141.02027,43.086058)">
    <path
       id="path2"
       stroke-miterlimit="10"
       d="m 380.41481,267.8744 c 0,0 -53,-67.8 -98.7,0 0,0 -76.8,-19.9 -78.6,63.8 0,0 -47.5,19.90001 -32.9,79.80001 0,0 -47.5,35.9 -29.2,103.7 0,0 -57.7,47.9 -4.2,137.6 0,0 -3.5,38.2 27.9,43.9 0,0 -10.5,87.8 82.5,101.7 0,0 23.8,77.8 140.7,-14 V 278.3744 l -7.5,-10.5"
       style="fill:#00aeef;stroke:#ffffff;stroke-width:3.39890003;stroke-miterlimit:10"
       inkscape:connector-curvature="0" />
    <path
       id="path4"
       d="m 284.91481,267.1744 0.3,1.2 c 0.2,0.8 0.5,2 1.1,3.6 1.1,3 2.9,7.4 6.2,11.9 1.6,2.2 3.7,4.4 6.1,6.4 2.4,2 5.4,3.6 8.6,4.8 6.5,2.4 14.3,2.6 21.8,1.1 l 2.9,-0.5 c 1,-0.2 1.9,-0.4 3,-0.4 1,-0.1 2,-0.3 3.1,-0.3 1,0 2,-0.1 3,-0.1 4,0 8,0.7 11.6,2.2 3.6,1.5 6.6,3.7 9,6.2 2.4,2.6 4.1,5.4 5.3,8.1 1.3,2.7 2.1,5.4 2.6,7.7 0.6,2.4 0.9,4.4 1.1,6.2 0.4,3.4 0.3,5.4 0.3,5.4 0,0 0,-2 -0.6,-5.4 -0.3,-1.7 -0.7,-3.7 -1.4,-6 -0.7,-2.3 -1.6,-4.8 -3,-7.4 -1.4,-2.6 -3.1,-5.2 -5.5,-7.5 -2.4,-2.3 -5.3,-4.2 -8.7,-5.4 -3.3,-1.2 -7.1,-1.7 -10.8,-1.5 -0.9,0 -1.9,0.1 -2.8,0.2 -0.9,0.1 -1.9,0.3 -2.8,0.4 -0.9,0.1 -1.9,0.4 -2.8,0.6 l -2.9,0.7 c -3.9,1 -8,1.5 -12.1,1.6 -4.1,0 -8.1,-0.5 -11.9,-1.7 -3.8,-1.2 -7.3,-2.9 -10.2,-5 -3,-2.1 -5.4,-4.6 -7.4,-7 -4,-4.9 -6.3,-9.7 -7.7,-13.1 -0.7,-1.7 -1.1,-3.1 -1.4,-4 -0.3,-0.9 -0.4,-1.6 -0.4,-1.5 -0.4,-1.8 0.7,-3.5 2.5,-3.9 1.8,-0.5 3.5,0.6 3.9,2.4 z"
       style="fill:#ffffff"
       inkscape:connector-curvature="0" />
    <path
       id="path6"
       d="m 205.11481,329.0744 c 1.4,1.1 2.9,2.3 4.5,3.4 1.6,1.1 3.1,2.2 4.7,3.2 1.6,1.00001 3.2,2.00001 4.9,2.90001 0.8,0.5 1.7,0.9 2.5,1.3 0.8,0.4 1.7,0.9 2.6,1.3 0.9,0.4 1.7,0.8 2.6,1.2 0.9,0.4 1.7,0.8 2.6,1.1 1.8,0.7 3.5,1.3 5.4,1.9 l 2.7,0.8 2.8,0.6 c 1.8,0.3 3.7,0.6 5.6,0.7 0.9,0.1 1.9,0.1 2.8,0.1 h 1.4 l 1.4,-0.1 c 0.9,-0.1 1.9,-0.1 2.8,-0.3 0.9,-0.2 1.8,-0.3 2.7,-0.6 0.9,-0.3 1.8,-0.5 2.7,-0.8 l 2.6,-1 2.4,-1.3 c 0.4,-0.2 0.8,-0.5 1.2,-0.7 l 1.1,-0.8 c 0.4,-0.3 0.8,-0.5 1.1,-0.8 l 1.1,-0.9 1.1,-0.9 c 0.4,-0.3 0.7,-0.6 1,-1 l 1.9,-2.1 c 0.6,-0.70001 1.2,-1.50001 1.8,-2.20001 1.2,-1.5 2.1,-3.2 3.2,-4.8 0.5,-0.8 0.9,-1.7 1.4,-2.5 l 1.3,-2.6 0.1,-0.1 c 0,0 0,-0.1 0.1,-0.1 0.6,-0.7 1.2,-1.4 1.9,-2 0.6,-0.6 1.3,-1.3 2,-1.9 1.4,-1.2 2.8,-2.3 4.3,-3.3 0.8,-0.5 1.5,-1 2.3,-1.4 0.8,-0.4 1.6,-0.8 2.5,-1.2 0.4,-0.2 0.9,-0.3 1.3,-0.5 0.4,-0.2 0.9,-0.3 1.3,-0.4 0.4,-0.1 0.9,-0.2 1.3,-0.3 0.5,-0.1 0.9,-0.1 1.4,-0.2 0.9,-0.1 1.8,0 2.7,0.1 0.5,0.1 0.9,0.1 1.4,0.2 0.4,0.1 0.9,0.2 1.3,0.4 l 1.3,0.5 1.2,0.6 c 0.4,0.2 0.8,0.5 1.1,0.7 0.4,0.3 0.8,0.5 1.1,0.8 l 1,0.9 c 0.3,0.3 0.6,0.6 0.9,1 0.6,0.6 1.2,1.4 1.7,2 0.5,0.7 1,1.5 1.5,2.2 l 1.3,2.3 -1.5,-2.2 c -0.5,-0.7 -1,-1.4 -1.6,-2.1 -0.6,-0.6 -1.1,-1.3 -1.8,-1.9 -0.3,-0.3 -0.6,-0.6 -1,-0.9 l -1,-0.8 c -0.3,-0.3 -0.7,-0.5 -1.1,-0.7 -0.4,-0.2 -0.7,-0.5 -1.1,-0.6 -0.4,-0.2 -0.8,-0.4 -1.2,-0.5 l -1.2,-0.4 c -0.4,-0.1 -0.8,-0.2 -1.3,-0.3 -0.4,-0.1 -0.9,-0.1 -1.3,-0.2 -0.9,-0.1 -1.7,0 -2.6,0.1 -0.4,0 -0.8,0.1 -1.3,0.2 l -1.2,0.3 c -0.4,0.1 -0.8,0.2 -1.2,0.4 -0.4,0.1 -0.8,0.3 -1.2,0.5 -0.8,0.3 -1.5,0.8 -2.3,1.2 -0.7,0.4 -1.5,0.9 -2.2,1.4 -1.4,1 -2.7,2.2 -4,3.4 -0.6,0.6 -1.2,1.2 -1.8,1.9 -0.6,0.6 -1.1,1.3 -1.6,2 l 0.1,-0.2 -1.2,2.7 c -0.4,0.9 -0.8,1.8 -1.3,2.7 -1,1.7 -1.9,3.5 -3.1,5.2 -0.6,0.80001 -1.1,1.70001 -1.7,2.50001 l -2,2.3 c -0.3,0.4 -0.7,0.8 -1,1.1 l -1.1,1.1 -1.1,1.1 -1.2,0.9 -1.2,0.9 c -0.4,0.3 -0.8,0.6 -1.3,0.9 -0.9,0.5 -1.8,1.1 -2.7,1.6 l -2.8,1.3 c -0.9,0.4 -1.9,0.7 -2.9,1 -1,0.4 -2,0.5 -3,0.8 -1,0.3 -2,0.4 -3.1,0.5 l -1.5,0.2 -1.5,0.1 c -1,0 -2.1,0.1 -3.1,0 -2.1,0 -4.1,-0.2 -6.1,-0.5 l -3,-0.5 -3,-0.7 c -2,-0.5 -3.9,-1.1 -5.8,-1.7 -1,-0.3 -1.9,-0.7 -2.9,-1 -1,-0.3 -1.9,-0.7 -2.8,-1.1 -0.9,-0.4 -1.9,-0.8 -2.8,-1.2 -0.9,-0.4 -1.8,-0.8 -2.7,-1.3 -1.8,-0.9 -3.6,-1.8 -5.3,-2.8 -1.8,-1 -3.5,-2 -5.2,-3.1 -1.7,-1.1 -3.4,-2.20001 -5.1,-3.50001 -1.4,-1.1 -1.7,-3.1 -0.7,-4.6 1.1,-1.4 3.1,-1.7 4.6,-0.7 0,-0.3 0,-0.2 0.1,-0.2 z"
       style="fill:#ffffff"
       inkscape:connector-curvature="0" />
    <path
       id="path8"
       d="m 168.21481,408.77441 c 0,0 0.2,-0.1 0.4,-0.3 0.3,-0.2 0.7,-0.5 1.3,-0.8 1.1,-0.7 2.7,-1.7 4.8,-2.9 4.2,-2.4 10.2,-5.6 17.9,-8.7 7.6,-3 16.9,-5.9 27.1,-7.2 5.1,-0.7 10.5,-1 15.9,-0.7 1.4,0.1 2.7,0.2 4.1,0.3 1.4,0.2 2.7,0.3 4.1,0.5 l 2,0.4 1,0.2 h 0.7 l 0.5,0.1 3.9,1 c 5.4,1.8 10.2,4.4 14.8,7.3 1.1,0.8 2.2,1.5 3.3,2.3 1.1,0.8 2.1,1.6 3.2,2.4 l 1.6,1.2 1.5,1.2 c 1,0.8 2,1.7 2.9,2.5 3.8,3.4 7.3,6.8 10.5,10.1 0.8,0.8 1.6,1.7 2.4,2.5 0.8,0.8 1.5,1.6 2.3,2.4 1.5,1.6 2.9,3.2 4.2,4.7 2.7,3 5.1,5.8 7.2,8.3 2.1,2.5 4,4.7 5.5,6.5 3,3.6 4.7,5.7 4.7,5.7 0,0 -1.8,-2 -5,-5.5 -1.6,-1.7 -3.5,-3.8 -5.7,-6.3 -2.2,-2.4 -4.7,-5.1 -7.5,-8 -1.4,-1.5 -2.8,-3 -4.4,-4.5 l -2.3,-2.3 c -0.8,-0.8 -1.6,-1.6 -2.5,-2.4 -3.3,-3.2 -7,-6.4 -10.8,-9.6 -1,-0.8 -2,-1.5 -3,-2.3 l -1.5,-1.2 c -0.5,-0.4 -1,-0.7 -1.6,-1.1 -1.1,-0.7 -2.1,-1.5 -3.2,-2.2 l -3.3,-2.1 c -4.5,-2.6 -9.3,-5 -14.1,-6.4 l -3.9,-0.9 -0.5,-0.1 -0.4,-0.1 -1,-0.1 -1.9,-0.3 c -1.3,-0.1 -2.6,-0.2 -3.9,-0.4 -1.3,0 -2.6,-0.1 -3.9,-0.1 -5.2,-0.1 -10.2,0.4 -15.1,1.2 -9.7,1.7 -18.5,4.7 -25.7,7.9 -7.2,3.2 -12.9,6.5 -16.8,8.9 -1.9,1.2 -3.4,2.2 -4.4,2.9 -0.5,0.4 -0.9,0.6 -1.1,0.8 -0.2,0.2 -0.4,0.3 -0.4,0.3 -1.4,1.1 -3.5,0.8 -4.6,-0.6 -1.1,-1.4 -0.8,-3.5 0.6,-4.6 0.1,0.2 0.1,0.2 0.1,0.1 z"
       style="fill:#ffffff"
       inkscape:connector-curvature="0" />
    <path
       id="path10"
       d="m 136.41481,649.57441 c 0,0 1.1,-0.1 3.3,-0.4 2.2,-0.3 5.4,-0.7 9.4,-1.5 4,-0.7 8.9,-1.8 14.5,-3.2 5.5,-1.4 11.8,-3.3 18.4,-5.7 6.6,-2.4 13.7,-5.4 20.8,-9.2 7.1,-3.8 14.3,-8.3 21.1,-13.9 6.8,-5.6 13.1,-12.2 18.3,-19.7 5.2,-7.6 9.2,-16.1 11.7,-25.2 1.2,-4.5 2.1,-9.1 2.7,-13.8 0.5,-4.7 0.8,-9.3 0.7,-14 -0.1,-9.3 -1.5,-18.4 -3.4,-27.1 -1,-4.3 -2.1,-8.6 -3.3,-12.7 -0.5,-2.1 -1.3,-4 -2.2,-5.9 -0.8,-1.9 -1.8,-3.7 -2.7,-5.5 -3.9,-7.1 -9,-13.1 -14.9,-17 -2.9,-1.9 -6.1,-3.3 -9.2,-4 -3.1,-0.8 -6.2,-0.9 -9.1,-0.7 -5.8,0.5 -10.6,2.3 -14.3,4.1 -0.9,0.5 -1.8,0.9 -2.6,1.3 -0.8,0.4 -1.6,0.9 -2.3,1.3 -0.7,0.4 -1.3,0.8 -1.9,1.1 -0.6,0.4 -1.1,0.7 -1.5,1 -1.8,1.3 -2.8,1.9 -2.8,1.9 0,0 1,-0.7 2.8,-2 0.5,-0.3 1,-0.7 1.5,-1.1 0.6,-0.4 1.2,-0.8 1.9,-1.2 0.7,-0.4 1.4,-0.9 2.2,-1.4 0.8,-0.4 1.7,-0.9 2.6,-1.4 3.7,-1.8 8.5,-3.8 14.4,-4.4 2.9,-0.2 6.1,-0.3 9.3,0.5 3.2,0.7 6.5,2 9.6,4 6.2,3.8 11.5,9.9 15.7,17.1 1,1.8 2,3.7 2.9,5.6 0.4,1 0.9,1.9 1.3,2.9 l 0.6,1.5 0.5,1.6 c 1.3,4.1 2.6,8.4 3.6,12.7 2.1,8.7 3.7,18 4,27.5 0.2,4.7 0,9.5 -0.4,14.4 -0.5,4.8 -1.3,9.6 -2.5,14.3 -2.4,9.4 -6.4,18.4 -11.6,26.5 -5.3,8 -11.7,15.1 -18.6,21 -6.9,5.9 -14.3,10.8 -21.6,14.9 -7.3,4 -14.5,7.3 -21.2,9.9 -6.8,2.6 -13.1,4.7 -18.8,6.3 -5.7,1.6 -10.7,2.8 -14.8,3.6 -4.2,0.9 -7.4,1.4 -9.7,1.8 -2.2,0.3 -3.5,0.5 -3.5,0.5 -1.8,0.2 -3.4,-1.1 -3.6,-2.9 -0.5,-1.6 0.8,-3.2 2.7,-3.4 z"
       style="fill:#ffffff"
       inkscape:connector-curvature="0" />
    <path
       id="path12"
       d="m 389.81481,536.07441 c 0,0 -0.2,0.2 -0.6,0.4 -0.4,0.3 -1,0.8 -1.8,1.4 -1.5,1.2 -3.8,3.1 -6.5,5.7 -2.7,2.6 -6,5.8 -9.4,9.7 -3.4,3.9 -7.1,8.6 -10.4,14 -3.4,5.4 -6.5,11.6 -8.7,18.5 -2.2,6.9 -3.4,14.6 -2.9,22.5 0.5,7.9 2.8,15.9 6.5,23.4 0.4,1 0.9,1.9 1.5,2.8 l 1.6,2.8 0.8,1.4 0.8,1.4 c 0.6,0.9 1.1,2 1.6,3 2,4 3.6,8.3 4.7,12.6 2.2,8.7 2.5,17.8 1.6,26.5 -0.9,8.7 -3,17.1 -5.6,24.9 -2.6,7.8 -5.8,15.2 -9.2,21.9 -3.4,6.8 -6.9,13 -10.3,18.6 -6.9,11.2 -13.5,20 -18.2,26.1 -4.7,6 -7.7,9.3 -7.7,9.3 0,0 2.9,-3.3 7.5,-9.5 4.6,-6.1 10.9,-15.1 17.5,-26.4 3.3,-5.7 6.7,-11.9 9.9,-18.7 3.2,-6.8 6.2,-14.1 8.6,-21.9 2.4,-7.8 4.3,-16 4.9,-24.5 0.7,-8.5 0.1,-17.2 -2.2,-25.4 -1.1,-4.1 -2.7,-8.1 -4.7,-11.8 -0.5,-0.9 -0.9,-1.8 -1.6,-2.7 l -1.7,-2.8 -1.7,-2.9 c -0.6,-0.9 -1.2,-1.9 -1.6,-2.9 -4.1,-7.8 -6.7,-16.4 -7.5,-24.9 -0.7,-8.5 0.4,-16.8 2.5,-24.3 2.2,-7.5 5.4,-14.1 8.8,-19.9 3.4,-5.8 7.1,-10.8 10.6,-15 3.5,-4.2 6.8,-7.6 9.6,-10.4 2.8,-2.7 5.1,-4.8 6.7,-6.1 0.8,-0.7 1.4,-1.2 1.9,-1.5 0.4,-0.3 0.7,-0.5 0.7,-0.5 1.4,-1.1 3.5,-0.9 4.6,0.6 1.1,1.5 0.9,3.5 -0.6,4.6 0.1,-0.1 0.1,-0.1 0,0 z"
       style="fill:#ffffff"
       inkscape:connector-curvature="0" />
    <path
       id="path14"
       d="m 250.91481,441.37441 c 0,0 1.1,2.6 3,7.3 0.5,1.2 1,2.4 1.6,3.8 0.6,1.4 1.3,2.8 2.1,4.4 0.7,1.6 1.5,3.3 2.4,5 0.8,1.8 1.9,3.5 2.9,5.4 1,1.9 2,3.9 3.2,5.9 1.2,2 2.4,4 3.7,6.1 0.3,0.5 0.6,1.1 1,1.6 0.4,0.5 0.7,1 1.1,1.5 0.7,1 1.4,2.1 2.2,3.1 0.7,1.1 1.5,2.1 2.2,3.2 0.8,1 1.6,2.1 2.4,3.1 0.8,1.1 1.6,2.1 2.5,3.2 0.8,1.1 1.8,2.1 2.7,3.1 0.9,1 1.8,2.1 2.7,3.1 0.4,0.5 0.9,1 1.4,1.5 l 1.5,1.5 3,3 c 1,1 2.1,1.9 3.2,2.8 1.1,0.9 2.1,1.9 3.2,2.8 l 3.4,2.6 c 2.2,1.8 4.6,3.2 6.9,4.8 0.6,0.4 1.2,0.8 1.8,1.1 l 1.8,1 1.8,1 c 0.6,0.4 1.2,0.7 1.8,1 2.5,1.2 4.9,2.5 7.5,3.4 2.5,1.1 5,1.9 7.5,2.7 1.2,0.4 2.5,0.7 3.8,1.1 1.2,0.3 2.5,0.7 3.7,0.9 1.2,0.3 2.5,0.5 3.7,0.8 1.2,0.2 2.4,0.4 3.6,0.5 4.8,0.6 9.3,1 13.5,0.9 4.2,0 8,-0.3 11.4,-0.8 3.4,-0.4 6.3,-1 8.6,-1.5 2.4,-0.5 4.2,-1.1 5.4,-1.4 0.6,-0.2 1.1,-0.3 1.3,-0.4 0.3,-0.1 0.4,-0.1 0.4,-0.1 h 0.1 c 1.7,-0.6 3.6,0.3 4.2,2 0.6,1.7 -0.3,3.6 -2,4.2 h -0.1 c 0,0 -0.2,0.1 -0.6,0.2 -0.4,0.1 -0.9,0.3 -1.6,0.5 -1.4,0.4 -3.4,0.9 -5.9,1.4 -2.6,0.5 -5.7,1 -9.3,1.3 -3.6,0.4 -7.6,0.5 -12.1,0.4 -4.4,-0.1 -9.2,-0.6 -14.2,-1.4 -1.2,-0.2 -2.5,-0.5 -3.8,-0.7 -1.3,-0.3 -2.5,-0.6 -3.8,-0.9 -1.3,-0.3 -2.6,-0.7 -3.9,-1.1 -1.3,-0.4 -2.6,-0.8 -3.9,-1.3 -2.6,-1 -5.2,-1.9 -7.8,-3.1 -2.6,-1.1 -5.1,-2.5 -7.7,-3.8 -0.6,-0.3 -1.3,-0.7 -1.9,-1.1 l -1.8,-1.1 -1.8,-1.1 -1.8,-1.2 c -2.3,-1.7 -4.8,-3.3 -7,-5.2 l -3.4,-2.8 c -1.1,-1 -2.1,-2 -3.2,-3 -1,-1 -2.1,-2 -3.1,-3 -1,-1 -2,-2.1 -2.9,-3.1 l -1.5,-1.6 c -0.5,-0.5 -1,-1 -1.4,-1.6 l -2.7,-3.3 c -0.9,-1.1 -1.8,-2.1 -2.6,-3.2 l -2.4,-3.3 -2.4,-3.3 c -0.7,-1.1 -1.4,-2.2 -2.1,-3.3 -0.7,-1.1 -1.4,-2.2 -2.1,-3.3 -0.3,-0.5 -0.7,-1.1 -1,-1.6 -0.3,-0.5 -0.6,-1.1 -0.9,-1.6 -1.2,-2.2 -2.4,-4.3 -3.5,-6.3 -1.1,-2 -2.1,-4.1 -3,-6 -0.9,-1.9 -1.9,-3.8 -2.7,-5.6 -0.8,-1.8 -1.5,-3.5 -2.2,-5.1 -0.7,-1.6 -1.3,-3.1 -1.9,-4.5 -0.5,-1.4 -1,-2.7 -1.5,-3.9 -1.7,-4.9 -2.7,-7.6 -2.7,-7.6 z"
       style="fill:#ffffff"
       inkscape:connector-curvature="0" />
    <path
       id="path16"
       d="m 245.41481,795.67441 c 0,0 0.4,-0.3 1.2,-0.7 0.8,-0.5 1.9,-1.2 3.3,-2.2 2.9,-2 6.9,-4.9 11.5,-8.7 4.6,-3.8 9.8,-8.5 14.8,-14 5,-5.5 9.9,-11.9 13.7,-18.8 1.9,-3.5 3.5,-7.1 4.7,-10.8 1.2,-3.7 2,-7.5 2.4,-11.2 0.8,-7.4 -0.6,-14.5 -2.6,-20.1 -1,-2.8 -2.3,-5.3 -3.5,-7.5 -1.2,-2.1 -2.4,-3.9 -3.4,-5.4 -0.5,-0.7 -1,-1.4 -1.4,-1.9 -0.4,-0.5 -0.8,-1 -1.1,-1.4 -0.6,-0.7 -0.9,-1.1 -0.9,-1.1 0,0 0.3,0.4 1,1.1 0.3,0.4 0.7,0.8 1.2,1.3 0.4,0.5 0.9,1.2 1.5,1.9 1.1,1.4 2.4,3.2 3.7,5.2 1.3,2.1 2.7,4.6 3.9,7.4 1.2,2.8 2.2,6 2.9,9.5 0.7,3.5 1,7.2 0.8,11.1 -0.2,3.9 -0.8,7.9 -1.9,11.8 -1.1,3.9 -2.6,7.8 -4.4,11.5 -3.6,7.5 -8.3,14.3 -13.3,20.3 -4.9,6 -10,11.1 -14.6,15.3 -4.6,4.2 -8.6,7.4 -11.4,9.6 -1.4,1.1 -2.6,1.9 -3.4,2.5 -0.8,0.6 -1.3,0.9 -1.3,0.9 -1.5,1 -3.5,0.7 -4.5,-0.8 -1,-1.5 -0.7,-3.5 0.8,-4.5 z"
       style="fill:#ffffff"
       inkscape:connector-curvature="0" />
    <path
       id="path18"
       d="m 244.21481,678.37441 0.8,-1.6 c 0.5,-1 1.2,-2.5 2.2,-4.4 2,-3.7 5,-8.9 9.6,-14.5 2.3,-2.8 4.9,-5.8 8.2,-8.5 3.2,-2.7 7,-5.3 11.6,-6.8 4.5,-1.5 9.7,-1.8 14.5,-0.4 4.8,1.3 9,4 12.7,7.2 3.7,3.2 6.8,6.8 9.6,10.5 2.8,3.7 5.3,7.5 7.4,11.5 2.1,3.9 3.7,7.9 5,11.7 0.6,1.9 1.2,3.8 1.7,5.6 0.5,1.8 0.9,3.6 1.3,5.3 0.9,3.3 2.3,6.2 4.1,8.4 1.7,2.2 3.9,3.5 5.8,4.2 0.9,0.4 1.9,0.5 2.6,0.6 0.8,0 1.5,0.1 2,0.1 1.1,-0.1 1.7,-0.1 1.7,-0.1 0,0 -0.6,0.1 -1.7,0.2 -0.5,0.1 -1.2,0 -2,0 -0.8,-0.1 -1.7,-0.2 -2.7,-0.5 -2,-0.6 -4.3,-1.8 -6.2,-4 -1.9,-2.2 -3.5,-5.1 -4.6,-8.5 -0.6,-1.7 -1,-3.4 -1.6,-5.2 -0.6,-1.8 -1.2,-3.6 -1.9,-5.5 -1.4,-3.7 -3.2,-7.5 -5.3,-11.2 -2.1,-3.7 -4.8,-7.3 -7.7,-10.9 -2.9,-3.5 -6,-6.8 -9.6,-9.6 -3.5,-2.8 -7.5,-5 -11.6,-5.9 -4.1,-1 -8.3,-0.6 -12,0.9 -3.7,1.5 -7,3.8 -9.8,6.4 -2.8,2.6 -5.1,5.4 -7.1,8.1 -4,5.4 -6.7,10.5 -8.4,14 -0.9,1.8 -1.5,3.2 -1.9,4.2 -0.4,0.9 -0.6,1.4 -0.6,1.4 -0.7,1.7 -2.6,2.5 -4.3,1.8 -1.7,-0.9 -2.5,-2.8 -1.8,-4.5 z"
       style="fill:#ffffff"
       inkscape:connector-curvature="0" />
    <path
       id="path20"
       d="m 249.71481,582.37441 c 0,0 0.3,-0.2 0.8,-0.6 0.5,-0.4 1.3,-0.9 2.4,-1.6 1,-0.7 2.3,-1.4 3.8,-2.3 1.5,-0.8 3.2,-1.8 5.1,-2.7 1.9,-0.9 4,-1.8 6.2,-2.7 2.3,-0.8 4.7,-1.6 7.3,-2.3 2.6,-0.6 5.3,-1.1 8.1,-1.2 1.4,-0.1 2.8,0 4.2,0 1.4,0.2 2.8,0.2 4.2,0.6 1.4,0.2 2.7,0.7 4.1,1.2 0.7,0.2 1.3,0.6 1.9,0.8 0.6,0.3 1.3,0.6 1.9,1 0.6,0.4 1.2,0.7 1.8,1.1 0.6,0.4 1.1,0.8 1.6,1.2 1.1,0.8 2,1.8 3,2.7 l 0.7,0.7 0.6,0.8 1.2,1.5 c 0.4,0.5 0.7,1 1.1,1.5 0.3,0.5 0.7,1 1,1.5 0.2,0.3 0.3,0.5 0.5,0.7 0.1,0.3 0.3,0.5 0.4,0.8 0.3,0.5 0.5,1 0.8,1.5 0.3,0.5 0.5,1 0.8,1.5 l 0.6,1.5 c 0.4,1 0.8,1.9 1.1,2.7 0.3,0.9 0.6,1.7 0.8,2.5 0.3,0.8 0.5,1.5 0.7,2.2 0.2,0.7 0.3,1.3 0.5,1.9 0.6,2.3 0.9,3.7 0.9,3.7 0,0 -0.4,-1.3 -1.1,-3.6 -0.2,-0.6 -0.3,-1.2 -0.6,-1.9 -0.3,-0.7 -0.5,-1.4 -0.8,-2.2 -0.3,-0.8 -0.6,-1.6 -0.9,-2.5 -0.4,-0.8 -0.8,-1.7 -1.2,-2.7 -0.2,-0.5 -0.4,-0.9 -0.7,-1.4 -0.3,-0.5 -0.5,-0.9 -0.8,-1.4 -0.3,-0.5 -0.6,-1 -0.8,-1.5 -0.1,-0.2 -0.3,-0.5 -0.4,-0.7 -0.2,-0.2 -0.3,-0.5 -0.5,-0.7 -0.3,-0.5 -0.7,-1 -1,-1.4 -0.3,-0.5 -0.7,-1 -1.1,-1.4 -0.4,-0.5 -0.8,-0.9 -1.2,-1.4 l -0.6,-0.7 c -0.2,-0.2 -0.5,-0.4 -0.7,-0.6 -0.9,-0.8 -1.8,-1.7 -2.9,-2.4 -0.5,-0.4 -1,-0.8 -1.6,-1.1 -0.6,-0.3 -1.1,-0.6 -1.7,-0.9 -0.6,-0.3 -1.2,-0.6 -1.8,-0.8 -0.6,-0.2 -1.2,-0.5 -1.8,-0.7 -1.3,-0.3 -2.5,-0.7 -3.9,-0.9 -1.3,-0.3 -2.6,-0.3 -3.9,-0.4 -1.3,0 -2.6,0 -3.9,0.2 -2.6,0.2 -5.1,0.8 -7.5,1.5 -2.4,0.7 -4.7,1.6 -6.8,2.5 -2.1,0.9 -4.1,1.9 -5.8,2.9 -1.8,0.9 -3.4,1.9 -4.7,2.8 -1.4,0.9 -2.6,1.7 -3.5,2.4 -1,0.7 -1.7,1.2 -2.2,1.6 -0.5,0.4 -0.7,0.6 -0.7,0.6 -0.9,0.7 -2.1,0.5 -2.8,-0.3 -1.3,-1.1 -1.2,-2.4 -0.2,-3.1 -0.1,0 0,0 0,0 z"
       style="fill:#ffffff"
       inkscape:connector-curvature="0" />
    <path
       id="path22"
       d="m 302.71481,484.97441 c 0,0 0.9,0.1 2.7,0.2 1.8,0.1 4.3,0.1 7.6,-0.4 3.2,-0.5 7.1,-1.4 11.2,-3.4 4.1,-2 8.1,-5.3 11.2,-9.9 3.2,-4.6 5.1,-10.4 6.1,-16.7 0.9,-6.3 1,-13.1 0.2,-20 -0.1,-1.7 -0.4,-3.5 -0.7,-5.2 -0.3,-1.8 -0.5,-3.5 -0.8,-5.3 -0.3,-1.8 -0.7,-3.5 -1,-5.3 -0.4,-1.8 -0.9,-3.5 -1.3,-5.3 -1.7,-7.1 -4,-14.2 -6.4,-21.3 -1.2,-3.5 -2.6,-7 -3.8,-10.5 l -0.5,-1.3 c -0.2,-0.4 -0.3,-0.9 -0.5,-1.4 -0.3,-1 -0.6,-1.9 -0.8,-2.8 -0.5,-1.9 -0.8,-3.8 -0.9,-5.8 -0.3,-3.9 0,-7.8 1,-11.6 l 0.2,-0.7 0.1,-0.3 0.2,-0.4 c 0.2,-0.4 0.3,-0.8 0.5,-1.3 0.5,-1.1 1,-1.9 1.6,-2.7 1.2,-1.6 2.6,-3 4.2,-4.2 3.1,-2.3 6.8,-3.8 10.6,-4.3 3.7,-0.5 7.5,-0.1 10.8,1 3.4,1 6.4,2.6 9.1,4.4 2.7,1.8 5,3.9 7.1,5.9 4.2,4.2 7.4,8.5 9.9,12.4 0.7,1 1.2,2 1.8,2.9 0.6,0.9 1.1,1.8 1.6,2.7 1,1.8 1.9,3.4 2.6,4.9 0.7,1.5 1.4,2.8 2,4 0.5,1.2 1,2.2 1.4,3 0.7,1.6 1.1,2.5 1.1,2.5 0.7,1.6 0,3.6 -1.6,4.3 -1.6,0.7 -3.6,0 -4.3,-1.6 v -0.2 c 0,0 -0.4,-0.8 -1,-2.4 -0.3,-0.8 -0.7,-1.8 -1.2,-2.9 -0.5,-1.1 -1.1,-2.4 -1.8,-3.9 -0.7,-1.5 -1.5,-3 -2.4,-4.7 -0.4,-0.9 -1,-1.7 -1.5,-2.6 -0.5,-0.9 -1,-1.8 -1.6,-2.8 -2.3,-3.8 -5.2,-7.9 -8.8,-11.8 -1.8,-1.9 -3.9,-3.8 -6.2,-5.4 -2.3,-1.6 -4.9,-3 -7.6,-3.9 -2.8,-0.9 -5.7,-1.4 -8.7,-1 -3,0.3 -6,1.4 -8.5,3.2 -1.3,0.9 -2.4,2 -3.4,3.2 -0.5,0.6 -0.9,1.3 -1.2,1.8 -0.2,0.2 -0.3,0.8 -0.5,1.1 l -0.1,0.2 v 0.1 l -0.1,0.3 -0.4,0.4 c -1,3.2 -1.3,6.7 -1.1,10.2 0.1,1.7 0.3,3.5 0.7,5.2 0.2,0.9 0.4,1.7 0.6,2.5 0.1,0.4 0.3,0.9 0.4,1.3 l 0.4,1.3 c 1.2,3.6 2.4,7.1 3.6,10.7 2.2,7.2 4.3,14.5 5.8,21.7 0.4,1.8 0.8,3.6 1.1,5.4 l 0.9,5.4 c 0.3,1.8 0.5,3.6 0.7,5.4 0.2,1.8 0.5,3.6 0.5,5.3 0.6,7.1 0.3,14 -0.8,20.4 -1.2,6.4 -3.3,12.4 -6.7,17 -3.3,4.6 -7.6,8 -11.8,9.9 -4.2,2 -8.2,2.8 -11.4,3.2 -3.3,0.4 -5.9,0.3 -7.6,0.2 -1.6,-0.1 -2.5,-0.3 -2.5,-0.3 z"
       style="fill:#ffffff"
       inkscape:connector-curvature="0" />
    <path
       id="path24"
       d="m 163.71481,693.57441 c 0,0 0.3,-0.1 0.7,-0.2 0.5,-0.1 1.2,-0.3 2.1,-0.5 1.8,-0.4 4.3,-0.9 7.3,-1.4 3,-0.5 6.6,-1 10.4,-1.2 1.9,-0.1 3.9,-0.2 5.9,-0.3 2,0 4.1,0 6.1,0.1 2.1,0.2 4.1,0.4 6.1,0.8 2,0.3 3.9,0.9 5.8,1.5 0.9,0.3 1.8,0.7 2.6,1.1 l 1.2,0.6 0.6,0.3 0.6,0.4 c 0.4,0.2 0.7,0.5 1.1,0.7 0.4,0.2 0.7,0.5 1,0.8 0.3,0.3 0.6,0.5 0.9,0.8 0.3,0.3 0.5,0.6 0.8,0.9 0.3,0.3 0.5,0.5 0.7,0.9 l 0.6,0.9 0.6,0.9 c 0.1,0.3 0.3,0.6 0.4,0.9 0.6,1.1 0.9,2.2 1.2,3 0.2,0.8 0.3,1.5 0.4,2 0.1,0.5 0.1,0.7 0.1,0.7 0,0 -0.1,-0.2 -0.2,-0.7 -0.1,-0.4 -0.3,-1.1 -0.6,-1.9 -0.4,-0.8 -0.7,-1.8 -1.4,-2.8 -0.2,-0.3 -0.3,-0.5 -0.5,-0.8 -0.2,-0.3 -0.4,-0.5 -0.6,-0.8 -0.2,-0.3 -0.4,-0.5 -0.7,-0.8 -0.2,-0.3 -0.5,-0.5 -0.8,-0.7 -0.3,-0.2 -0.5,-0.5 -0.8,-0.7 -0.3,-0.2 -0.6,-0.4 -0.9,-0.7 -0.3,-0.2 -0.6,-0.5 -1,-0.7 -0.4,-0.2 -0.7,-0.4 -1.1,-0.6 l -0.6,-0.3 -0.6,-0.2 c -0.4,-0.2 -0.8,-0.3 -1.2,-0.5 -0.8,-0.3 -1.7,-0.5 -2.6,-0.8 -1.8,-0.4 -3.6,-0.7 -5.5,-0.9 -1.9,-0.2 -3.9,-0.2 -5.8,-0.1 -2,0.1 -3.9,0.2 -5.8,0.5 -1.9,0.2 -3.8,0.5 -5.6,0.8 -3.6,0.6 -7,1.4 -9.8,2.2 -2.8,0.8 -5.2,1.5 -6.8,2 -0.8,0.3 -1.4,0.5 -1.9,0.6 -0.4,0.2 -0.6,0.2 -0.6,0.2 -1.7,0.6 -3.6,-0.3 -4.2,-2 -0.6,-1.7 0.3,-3.6 2,-4.2 0.2,0.2 0.3,0.2 0.4,0.2 z"
       style="fill:#ffffff"
       inkscape:connector-curvature="0" />
    <path
       id="path26"
       d="m 138.61481,512.87441 0.2,-0.2 c 0.2,-0.2 0.4,-0.4 0.7,-0.6 0.6,-0.5 1.5,-1.1 2.7,-1.7 1.2,-0.6 2.8,-1.3 4.9,-1.6 2,-0.3 4.6,0 6.8,1.1 1.1,0.5 2.1,1.3 3.1,2.1 l 1.3,1.3 c 0.3,0.3 0.7,0.8 1,1.1 1.4,1.4 3.2,2.8 5,4.2 3.8,2.7 8.2,5.2 12.9,7.1 4.7,1.9 9.6,3.1 14.3,3 2.3,0 4.6,-0.3 6.6,-1 2,-0.7 3.9,-1.6 5.4,-2.7 0.8,-0.5 1.5,-1.1 2.1,-1.7 0.6,-0.6 1.2,-1.2 1.7,-1.8 0.5,-0.6 1,-1.2 1.4,-1.7 0.4,-0.6 0.7,-1.1 1,-1.6 0.3,-0.5 0.6,-0.9 0.8,-1.3 0.2,-0.4 0.4,-0.7 0.5,-1 0.3,-0.5 0.4,-0.8 0.4,-0.8 0,0 -0.1,0.3 -0.4,0.8 -0.1,0.3 -0.3,0.6 -0.5,1 -0.2,0.4 -0.4,0.9 -0.7,1.4 -0.3,0.5 -0.6,1 -0.9,1.7 -0.4,0.6 -0.8,1.2 -1.3,1.8 -0.5,0.6 -1.1,1.3 -1.6,2 -0.6,0.6 -1.3,1.3 -2.1,1.9 -1.5,1.3 -3.4,2.4 -5.5,3.3 -2.1,0.9 -4.5,1.4 -7,1.6 -2.5,0.2 -5.1,0.1 -7.7,-0.2 -2.6,-0.4 -5.2,-1 -7.8,-1.8 -5.1,-1.6 -10,-3.8 -14.3,-6.4 -2.2,-1.3 -4.1,-2.7 -6.1,-4.3 -0.5,-0.5 -0.8,-0.7 -1.3,-1.2 -0.3,-0.3 -0.7,-0.6 -1,-0.9 -0.7,-0.5 -1.3,-0.9 -2,-1.1 -1.3,-0.5 -2.4,-0.5 -3.5,-0.3 -1.1,0.2 -2,0.7 -2.7,1.2 -0.7,0.5 -1.3,0.9 -1.6,1.3 l -0.3,0.3 -0.1,0.1 v 0.1 c -1.2,1.3 -3.3,1.4 -4.6,0.1 -1.3,-1.2 -1.4,-3.3 -0.1,-4.6 0.2,0.1 0.3,0 0.3,0 z"
       style="fill:#ffffff"
       inkscape:connector-curvature="0" />
    <path
       id="path28"
       stroke-miterlimit="10"
       d="m 397.41481,267.8744 c 0,0 53,-67.8 98.7,0 0,0 76.8,-19.9 78.6,63.8 0,0 47.5,19.90001 32.9,79.80001 0,0 47.5,35.9 29.2,103.7 0,0 57.7,47.9 4.2,137.6 0,0 3.5,38.2 -27.9,43.9 0,0 10.5,87.8 -82.5,101.7 0,0 -23.8,77.8 -140.7,-14 V 278.3744 l 7.5,-10.5"
       style="fill:#00aeef;stroke:#ffffff;stroke-width:3.39890003;stroke-miterlimit:10"
       inkscape:connector-curvature="0" />
    <path
       id="path30"
       d="m 499.31481,268.5744 c 0,0 -0.1,0.6 -0.4,1.5 -0.3,1 -0.7,2.3 -1.4,4 -1.4,3.4 -3.7,8.2 -7.7,13.1 -2,2.4 -4.5,4.9 -7.4,7 -3,2.1 -6.4,3.9 -10.2,5 -3.8,1.2 -7.8,1.7 -11.9,1.7 -4.1,0 -8.1,-0.6 -12.1,-1.6 l -2.9,-0.7 c -1,-0.2 -1.9,-0.5 -2.8,-0.6 -0.9,-0.1 -1.8,-0.3 -2.8,-0.4 -0.9,-0.1 -1.9,-0.2 -2.8,-0.2 -3.7,-0.2 -7.5,0.3 -10.8,1.5 -3.4,1.2 -6.3,3.1 -8.7,5.4 -2.4,2.3 -4.1,4.9 -5.5,7.5 -1.4,2.6 -2.3,5.1 -3,7.4 -0.7,2.3 -1.1,4.3 -1.4,6 -0.6,3.4 -0.6,5.4 -0.6,5.4 0,0 -0.1,-2 0.3,-5.4 0.2,-1.7 0.5,-3.8 1.1,-6.2 0.6,-2.4 1.4,-5 2.6,-7.7 1.3,-2.7 3,-5.6 5.3,-8.1 2.4,-2.5 5.5,-4.8 9,-6.2 3.6,-1.5 7.6,-2.2 11.6,-2.2 1,0 2,0 3,0.1 1,0 2,0.2 3.1,0.3 1,0.1 2,0.3 3,0.4 l 2.9,0.5 c 7.5,1.5 15.3,1.3 21.8,-1.1 3.2,-1.2 6.2,-2.8 8.6,-4.8 2.5,-2 4.5,-4.2 6.1,-6.4 3.3,-4.5 5.1,-8.8 6.2,-11.9 0.5,-1.5 0.9,-2.8 1.1,-3.6 0.2,-0.9 0.3,-1.2 0.3,-1.2 0.4,-1.8 2.1,-2.9 3.9,-2.5 1.8,0.5 2.9,2.2 2.5,4 z"
       style="fill:#ffffff"
       inkscape:connector-curvature="0" />
    <path
       id="path32"
       d="m 576.71481,334.2744 c -1.7,1.3 -3.3,2.40001 -5.1,3.50001 -1.7,1.1 -3.4,2.1 -5.2,3.1 -1.8,1 -3.5,1.9 -5.3,2.8 -0.9,0.5 -1.8,0.9 -2.7,1.3 -0.9,0.4 -1.8,0.8 -2.8,1.2 -0.9,0.4 -1.9,0.8 -2.8,1.1 -0.9,0.4 -1.9,0.7 -2.9,1 -1.9,0.7 -3.9,1.2 -5.8,1.7 l -3,0.7 -3,0.5 c -2,0.3 -4.1,0.5 -6.1,0.5 -1,0.1 -2.1,0 -3.1,0 l -1.5,-0.1 -1.5,-0.2 c -1,-0.1 -2,-0.2 -3.1,-0.5 -1,-0.3 -2,-0.4 -3,-0.8 -1,-0.3 -2,-0.6 -2.9,-1 l -2.8,-1.3 c -0.9,-0.5 -1.8,-1.1 -2.7,-1.6 -0.5,-0.3 -0.9,-0.6 -1.3,-0.9 l -1.2,-0.9 -1.2,-0.9 -1.1,-1.1 -1.1,-1.1 c -0.4,-0.3 -0.7,-0.7 -1,-1.1 l -2,-2.3 c -0.6,-0.8 -1.2,-1.6 -1.7,-2.50001 -1.2,-1.6 -2.1,-3.4 -3.1,-5.2 -0.5,-0.9 -0.9,-1.8 -1.3,-2.7 l -1.2,-2.7 0.1,0.2 c -0.5,-0.7 -1.1,-1.3 -1.6,-2 -0.6,-0.6 -1.2,-1.3 -1.8,-1.9 -1.2,-1.2 -2.6,-2.4 -4,-3.4 -0.7,-0.5 -1.4,-1 -2.2,-1.4 -0.7,-0.4 -1.5,-0.9 -2.3,-1.2 -0.4,-0.2 -0.8,-0.3 -1.2,-0.5 -0.4,-0.2 -0.8,-0.3 -1.2,-0.4 l -1.2,-0.3 c -0.4,-0.1 -0.8,-0.2 -1.3,-0.2 -0.8,-0.1 -1.7,-0.1 -2.6,-0.1 -0.4,0.1 -0.9,0.1 -1.3,0.2 -0.4,0.1 -0.8,0.2 -1.3,0.3 l -1.2,0.4 c -0.4,0.2 -0.8,0.4 -1.2,0.5 -0.4,0.2 -0.8,0.4 -1.1,0.6 -0.4,0.2 -0.8,0.4 -1.1,0.7 l -1,0.8 c -0.3,0.3 -0.6,0.6 -1,0.9 -0.7,0.6 -1.2,1.3 -1.8,1.9 -0.6,0.7 -1.1,1.4 -1.6,2.1 l -1.5,2.2 1.3,-2.3 c 0.5,-0.7 1,-1.5 1.5,-2.2 0.6,-0.7 1.1,-1.4 1.7,-2 0.3,-0.3 0.6,-0.6 0.9,-1 l 1,-0.9 c 0.3,-0.3 0.7,-0.5 1.1,-0.8 0.4,-0.3 0.7,-0.5 1.1,-0.7 l 1.2,-0.6 1.3,-0.5 c 0.4,-0.1 0.9,-0.2 1.3,-0.4 0.4,-0.1 0.9,-0.2 1.4,-0.2 0.9,-0.1 1.8,-0.1 2.7,-0.1 0.5,0 0.9,0.1 1.4,0.2 0.5,0.1 0.9,0.2 1.3,0.3 0.4,0.1 0.9,0.2 1.3,0.4 0.4,0.1 0.9,0.3 1.3,0.5 0.9,0.3 1.7,0.7 2.5,1.2 0.8,0.4 1.6,0.9 2.3,1.4 1.5,1 2.9,2.1 4.3,3.3 0.7,0.6 1.3,1.2 2,1.9 0.6,0.6 1.2,1.3 1.9,2 l 0.1,0.1 0.1,0.1 1.3,2.6 c 0.5,0.8 0.8,1.7 1.4,2.5 1,1.6 2,3.3 3.2,4.8 0.6,0.7 1.1,1.5 1.8,2.2 l 1.9,2.10001 c 0.3,0.4 0.7,0.7 1,1 l 1.1,0.9 1.1,0.9 c 0.4,0.3 0.8,0.5 1.1,0.8 l 1.1,0.8 c 0.4,0.3 0.8,0.5 1.2,0.7 l 2.4,1.3 2.6,1 c 0.9,0.3 1.8,0.5 2.7,0.8 0.9,0.3 1.8,0.4 2.7,0.6 0.9,0.2 1.8,0.3 2.8,0.3 l 1.4,0.1 h 1.4 c 0.9,0 1.9,0 2.8,-0.1 1.9,-0.1 3.7,-0.4 5.6,-0.7 l 2.8,-0.6 2.7,-0.8 c 1.8,-0.6 3.6,-1.2 5.4,-1.9 0.9,-0.3 1.8,-0.7 2.6,-1.1 0.9,-0.4 1.7,-0.8 2.6,-1.2 0.9,-0.4 1.7,-0.8 2.6,-1.3 0.8,-0.4 1.7,-0.9 2.5,-1.3 1.7,-0.9 3.3,-1.9 4.9,-2.90001 1.6,-1 3.2,-2.1 4.7,-3.2 1.5,-1.1 3.1,-2.2 4.5,-3.4 1.4,-1.1 3.4,-0.9 4.6,0.4 1.1,1.4 0.9,3.4 -0.4,4.6 -0.1,0.4 -0.1,0.4 -0.2,0.5 z"
       style="fill:#ffffff"
       inkscape:connector-curvature="0" />
    <path
       id="path34"
       d="m 605.71481,414.07441 c 0,0 -0.1,-0.1 -0.4,-0.3 -0.3,-0.2 -0.6,-0.4 -1.1,-0.8 -1,-0.7 -2.5,-1.7 -4.4,-2.9 -3.9,-2.4 -9.6,-5.8 -16.8,-8.9 -7.2,-3.2 -16,-6.2 -25.7,-7.9 -4.8,-0.8 -9.9,-1.3 -15.1,-1.2 -1.3,0 -2.6,0.1 -3.9,0.1 -1.3,0.1 -2.6,0.2 -3.9,0.4 l -1.9,0.3 -1,0.1 -0.4,0.1 -0.5,0.1 -3.9,0.9 c -4.8,1.4 -9.7,3.7 -14.1,6.4 l -3.3,2.1 c -1.1,0.7 -2.1,1.5 -3.2,2.2 -0.5,0.4 -1,0.7 -1.6,1.1 l -1.5,1.2 c -1,0.8 -2,1.6 -3,2.3 -3.8,3.2 -7.5,6.4 -10.8,9.6 -0.8,0.8 -1.7,1.6 -2.5,2.4 l -2.3,2.3 c -1.5,1.5 -3,3 -4.4,4.5 -2.8,2.9 -5.3,5.6 -7.5,8 -2.2,2.4 -4.1,4.5 -5.7,6.3 -3.2,3.5 -5,5.5 -5,5.5 0,0 1.7,-2.1 4.7,-5.7 1.5,-1.8 3.4,-4 5.5,-6.5 2.1,-2.5 4.5,-5.3 7.2,-8.3 1.3,-1.5 2.7,-3.1 4.2,-4.7 0.7,-0.8 1.5,-1.6 2.3,-2.4 0.8,-0.8 1.6,-1.6 2.4,-2.5 3.2,-3.3 6.8,-6.7 10.5,-10.1 1,-0.8 1.9,-1.6 2.9,-2.5 l 1.5,-1.2 1.6,-1.2 c 1,-0.8 2.1,-1.6 3.2,-2.4 1.1,-0.8 2.2,-1.5 3.3,-2.3 4.5,-2.9 9.3,-5.5 14.8,-7.3 l 3.9,-1 0.5,-0.1 h 0.7 l 1,-0.2 2,-0.4 c 1.4,-0.2 2.7,-0.3 4.1,-0.5 1.4,-0.1 2.7,-0.2 4.1,-0.3 5.4,-0.3 10.8,0 15.9,0.7 10.2,1.4 19.5,4.2 27.1,7.2 7.7,3 13.7,6.3 17.9,8.7 2.1,1.2 3.7,2.2 4.8,2.9 0.6,0.4 1,0.6 1.3,0.8 0.3,0.2 0.4,0.3 0.4,0.3 1.5,1 1.8,3.1 0.8,4.5 -1,1.5 -3.1,1.8 -4.5,0.8 z"
       style="fill:#ffffff"
       inkscape:connector-curvature="0" />
    <path
       id="path36"
       d="m 640.71481,656.07441 c 0,0 -1.3,-0.1 -3.5,-0.5 -2.3,-0.3 -5.6,-0.9 -9.7,-1.8 -4.2,-0.9 -9.2,-2 -14.8,-3.6 -5.7,-1.6 -12,-3.6 -18.8,-6.3 -6.8,-2.6 -13.9,-5.9 -21.2,-9.9 -7.3,-4.1 -14.6,-9 -21.6,-14.9 -6.9,-6 -13.4,-13 -18.6,-21 -5.2,-8 -9.3,-17.1 -11.6,-26.5 -1.2,-4.7 -2,-9.5 -2.5,-14.3 -0.4,-4.8 -0.6,-9.6 -0.4,-14.4 0.3,-9.5 1.9,-18.7 4,-27.5 1.1,-4.4 2.3,-8.6 3.6,-12.7 l 0.5,-1.6 0.6,-1.5 c 0.4,-1 0.8,-2 1.3,-2.9 0.9,-1.9 1.9,-3.8 2.9,-5.6 4.2,-7.1 9.5,-13.2 15.7,-17.1 3.1,-1.9 6.4,-3.2 9.6,-4 3.2,-0.8 6.4,-0.7 9.3,-0.5 5.9,0.6 10.7,2.6 14.4,4.4 0.9,0.5 1.8,0.9 2.6,1.4 0.8,0.5 1.5,0.9 2.2,1.4 0.7,0.4 1.3,0.8 1.9,1.2 0.6,0.4 1.1,0.8 1.5,1.1 1.8,1.3 2.8,2 2.8,2 0,0 -1,-0.7 -2.8,-1.9 -0.5,-0.3 -1,-0.7 -1.5,-1 -0.6,-0.3 -1.2,-0.7 -1.9,-1.1 -0.7,-0.4 -1.4,-0.9 -2.3,-1.3 -0.8,-0.4 -1.7,-0.8 -2.6,-1.3 -3.8,-1.7 -8.6,-3.6 -14.3,-4.1 -2.9,-0.2 -6,-0.1 -9.1,0.7 -3.1,0.8 -6.3,2.1 -9.2,4 -5.9,3.8 -11,9.9 -14.9,17 -1,1.8 -1.9,3.6 -2.7,5.5 -0.8,1.9 -1.6,3.8 -2.2,5.9 -1.2,4.1 -2.4,8.3 -3.3,12.7 -1.9,8.7 -3.2,17.8 -3.4,27.1 -0.1,4.6 0.2,9.3 0.7,14 0.6,4.6 1.5,9.3 2.7,13.8 2.5,9 6.5,17.6 11.7,25.2 5.2,7.6 11.5,14.2 18.3,19.7 6.8,5.6 14,10.1 21.1,13.9 7.1,3.8 14.2,6.8 20.8,9.2 6.6,2.4 12.8,4.3 18.4,5.7 5.5,1.4 10.4,2.5 14.5,3.2 4,0.7 7.2,1.2 9.4,1.5 2.2,0.3 3.3,0.4 3.3,0.4 1.8,0.2 3.1,1.7 3,3.5 -0.2,1.8 -1.7,3.1 -3.5,3 -0.3,-0.2 -0.3,-0.2 -0.4,-0.2 z"
       style="fill:#ffffff"
       inkscape:connector-curvature="0" />
    <path
       id="path38"
       d="m 528.81481,801.17441 c 0,0 -0.4,-0.3 -1.3,-0.9 -0.8,-0.6 -2,-1.4 -3.4,-2.5 -2.9,-2.2 -6.9,-5.4 -11.4,-9.6 -4.6,-4.2 -9.7,-9.3 -14.6,-15.3 -4.9,-6 -9.7,-12.8 -13.3,-20.3 -1.8,-3.7 -3.3,-7.6 -4.4,-11.5 -1.1,-3.9 -1.7,-7.9 -1.9,-11.8 -0.2,-3.9 0.1,-7.6 0.8,-11.1 0.7,-3.5 1.7,-6.7 2.9,-9.5 1.2,-2.8 2.6,-5.3 3.9,-7.4 1.3,-2.1 2.6,-3.9 3.7,-5.2 0.6,-0.7 1,-1.3 1.5,-1.9 0.5,-0.5 0.8,-1 1.2,-1.3 0.6,-0.7 1,-1.1 1,-1.1 0,0 -0.3,0.4 -0.9,1.1 -0.3,0.4 -0.7,0.8 -1.1,1.4 -0.4,0.6 -0.9,1.2 -1.4,1.9 -1,1.4 -2.2,3.3 -3.4,5.4 -1.2,2.2 -2.4,4.6 -3.5,7.5 -2.1,5.6 -3.4,12.7 -2.6,20.1 0.4,3.7 1.1,7.5 2.4,11.2 1.2,3.7 2.8,7.3 4.7,10.8 3.8,7 8.7,13.3 13.7,18.8 5,5.5 10.2,10.2 14.8,14 4.6,3.8 8.6,6.7 11.5,8.7 1.4,1 2.6,1.7 3.3,2.2 0.8,0.5 1.2,0.7 1.2,0.7 h 0.1 c 1.5,1 2,3 1,4.5 -1,1.5 -3,2 -4.5,1 0.1,0.1 0.1,0.1 0,0.1 z"
       style="fill:#ffffff"
       inkscape:connector-curvature="0" />
    <path
       id="path40"
       d="m 527.61481,680.87441 c 0,0 -0.2,-0.5 -0.6,-1.4 -0.4,-1 -1,-2.4 -1.9,-4.2 -1.7,-3.5 -4.4,-8.6 -8.4,-14 -2,-2.7 -4.3,-5.5 -7.1,-8.1 -2.8,-2.6 -6,-4.9 -9.8,-6.4 -3.7,-1.4 -7.9,-1.9 -12,-0.9 -4.1,0.9 -8.1,3.2 -11.6,5.9 -3.5,2.8 -6.7,6.1 -9.6,9.6 -2.8,3.5 -5.5,7.2 -7.7,10.9 -2.2,3.7 -3.9,7.5 -5.3,11.2 -0.7,1.9 -1.3,3.7 -1.9,5.5 -0.6,1.8 -1,3.5 -1.6,5.2 -1.1,3.4 -2.7,6.3 -4.6,8.5 -1.9,2.2 -4.2,3.5 -6.2,4 -1,0.3 -1.9,0.4 -2.7,0.5 -0.8,0 -1.5,0.1 -2,0 -1.1,-0.1 -1.7,-0.2 -1.7,-0.2 0,0 0.6,0 1.7,0.1 0.5,0 1.2,-0.1 2,-0.1 0.8,-0.1 1.7,-0.2 2.6,-0.6 1.9,-0.6 4.1,-1.9 5.8,-4.2 1.8,-2.2 3.1,-5.1 4.1,-8.4 0.5,-1.7 0.8,-3.5 1.3,-5.3 0.5,-1.8 1.1,-3.7 1.7,-5.6 1.3,-3.8 2.9,-7.8 5,-11.7 2.1,-4 4.6,-7.7 7.4,-11.5 2.8,-3.7 5.9,-7.3 9.6,-10.5 3.7,-3.1 7.9,-5.8 12.7,-7.2 4.8,-1.4 10,-1.1 14.5,0.4 4.5,1.5 8.3,4.1 11.6,6.8 3.2,2.7 5.9,5.7 8.2,8.5 4.5,5.7 7.6,10.9 9.6,14.5 1,1.8 1.7,3.3 2.2,4.4 l 0.8,1.6 c 0.7,1.7 0,3.6 -1.7,4.3 -1.7,0.9 -3.7,0.1 -4.4,-1.6 z"
       style="fill:#ffffff"
       inkscape:connector-curvature="0" />
    <path
       id="path42"
       d="m 525.71481,585.47441 c 0,0 -0.3,-0.2 -0.7,-0.6 -0.5,-0.4 -1.2,-0.9 -2.2,-1.6 -1,-0.7 -2.1,-1.5 -3.5,-2.4 -1.4,-0.9 -3,-1.8 -4.7,-2.8 -1.8,-1 -3.7,-1.9 -5.8,-2.9 -2.1,-0.9 -4.4,-1.8 -6.8,-2.5 -2.4,-0.7 -4.9,-1.3 -7.5,-1.5 -1.3,-0.2 -2.6,-0.1 -3.9,-0.2 -1.3,0.1 -2.6,0.1 -3.9,0.4 -1.3,0.2 -2.6,0.6 -3.9,0.9 -0.6,0.2 -1.2,0.5 -1.8,0.7 -0.6,0.2 -1.2,0.5 -1.8,0.8 -0.6,0.3 -1.1,0.6 -1.7,0.9 -0.6,0.3 -1.1,0.7 -1.6,1.1 -1.1,0.7 -2,1.6 -2.9,2.4 -0.2,0.2 -0.5,0.4 -0.7,0.6 l -0.6,0.7 c -0.4,0.5 -0.8,0.9 -1.2,1.4 -0.4,0.4 -0.8,0.9 -1.1,1.4 -0.3,0.5 -0.7,1 -1,1.4 -0.2,0.2 -0.3,0.5 -0.5,0.7 -0.2,0.2 -0.3,0.5 -0.4,0.7 -0.3,0.5 -0.6,1 -0.8,1.5 -0.3,0.5 -0.5,0.9 -0.8,1.4 -0.2,0.5 -0.4,1 -0.7,1.4 l -1.2,2.7 c -0.4,0.9 -0.6,1.7 -0.9,2.5 -0.3,0.8 -0.6,1.5 -0.8,2.2 -0.2,0.7 -0.4,1.3 -0.6,1.9 -0.7,2.3 -1.1,3.6 -1.1,3.6 0,0 0.3,-1.3 0.9,-3.7 0.2,-0.6 0.3,-1.2 0.5,-1.9 0.2,-0.7 0.5,-1.4 0.7,-2.2 0.3,-0.8 0.5,-1.7 0.8,-2.5 0.4,-0.9 0.7,-1.8 1.1,-2.7 l 0.6,-1.5 c 0.2,-0.5 0.5,-1 0.8,-1.5 0.3,-0.5 0.5,-1 0.8,-1.5 0.1,-0.3 0.3,-0.5 0.4,-0.8 0.2,-0.2 0.3,-0.5 0.5,-0.7 0.3,-0.5 0.6,-1 1,-1.5 0.3,-0.5 0.6,-1.1 1.1,-1.5 l 1.2,-1.5 0.6,-0.8 0.7,-0.7 c 0.9,-0.9 1.8,-1.9 3,-2.7 0.5,-0.4 1.1,-0.9 1.6,-1.2 0.6,-0.4 1.2,-0.7 1.8,-1.1 0.6,-0.4 1.2,-0.7 1.9,-1 0.6,-0.3 1.3,-0.6 1.9,-0.8 1.3,-0.4 2.7,-0.9 4.1,-1.2 1.4,-0.4 2.8,-0.4 4.2,-0.6 1.4,0 2.8,-0.1 4.2,0 2.8,0.1 5.5,0.6 8.1,1.2 2.6,0.6 5,1.4 7.3,2.3 2.2,0.9 4.3,1.8 6.2,2.7 1.9,0.9 3.6,1.8 5.1,2.7 1.5,0.9 2.8,1.6 3.8,2.3 1,0.7 1.8,1.2 2.4,1.6 0.5,0.4 0.8,0.6 0.8,0.6 0.9,0.6 1.1,1.9 0.5,2.8 -0.6,0.9 -1.9,1.1 -2.8,0.5 -0.6,0.2 -0.7,0.2 -0.7,0.1 z"
       style="fill:#ffffff"
       inkscape:connector-curvature="0" />
    <path
       id="path44"
       d="m 475.11481,484.97441 c 0,0 -0.9,0.2 -2.7,0.3 -1.8,0.1 -4.3,0.2 -7.6,-0.2 -3.3,-0.4 -7.2,-1.2 -11.4,-3.2 -4.2,-1.9 -8.4,-5.2 -11.8,-9.9 -3.4,-4.6 -5.6,-10.6 -6.7,-17 -1.1,-6.4 -1.4,-13.3 -0.8,-20.4 0.1,-1.8 0.3,-3.5 0.5,-5.3 0.2,-1.8 0.4,-3.6 0.7,-5.4 l 0.9,-5.4 c 0.3,-1.8 0.8,-3.6 1.1,-5.4 1.5,-7.3 3.6,-14.5 5.8,-21.7 1.1,-3.6 2.4,-7.1 3.6,-10.7 l 0.4,-1.3 c 0.1,-0.4 0.3,-0.9 0.4,-1.3 0.2,-0.8 0.5,-1.7 0.6,-2.5 0.4,-1.7 0.6,-3.5 0.7,-5.2 0.2,-3.5 -0.2,-6.9 -1.1,-10.2 l -0.2,-0.6 -0.1,-0.3 c 0,0 0.1,0.2 0,0 v -0.1 l -0.1,-0.2 c -0.2,-0.4 -0.3,-0.9 -0.5,-1.1 -0.3,-0.6 -0.7,-1.2 -1.2,-1.8 -0.9,-1.2 -2.1,-2.3 -3.4,-3.2 -2.5,-1.8 -5.5,-2.9 -8.5,-3.2 -3,-0.4 -6,0.1 -8.7,1 -2.8,0.9 -5.3,2.3 -7.6,3.9 -2.3,1.7 -4.3,3.5 -6.2,5.4 -3.7,3.9 -6.5,8 -8.8,11.8 -0.6,0.9 -1.1,1.9 -1.6,2.8 -0.5,0.9 -1,1.8 -1.5,2.6 -0.9,1.7 -1.7,3.3 -2.4,4.7 -0.7,1.5 -1.3,2.8 -1.8,3.9 -0.5,1.2 -0.9,2.1 -1.2,2.9 -0.7,1.6 -1,2.4 -1,2.4 v 0.1 c -0.7,1.7 -2.6,2.4 -4.3,1.7 -1.7,-0.7 -2.4,-2.6 -1.7,-4.3 v -0.1 c 0,0 0.4,-0.9 1.1,-2.5 0.4,-0.8 0.8,-1.8 1.4,-3 0.6,-1.2 1.2,-2.5 2,-4 0.7,-1.5 1.7,-3.1 2.6,-4.9 0.5,-0.9 1.1,-1.8 1.6,-2.7 0.6,-0.9 1.1,-1.9 1.8,-2.9 2.6,-3.9 5.7,-8.3 9.9,-12.4 2.1,-2.1 4.5,-4.1 7.1,-5.9 2.7,-1.8 5.7,-3.4 9.1,-4.4 3.4,-1 7.1,-1.5 10.8,-1 3.7,0.5 7.4,1.9 10.6,4.3 1.6,1.2 3,2.6 4.2,4.2 0.6,0.8 1.1,1.7 1.6,2.7 0.3,0.5 0.4,0.9 0.5,1.3 l 0.2,0.4 0.1,0.3 0.2,0.7 c 1,3.7 1.3,7.7 1,11.6 -0.2,1.9 -0.5,3.9 -0.9,5.8 -0.2,1 -0.5,1.9 -0.8,2.8 -0.2,0.5 -0.3,0.9 -0.5,1.4 l -0.5,1.3 c -1.3,3.5 -2.6,7 -3.8,10.5 -2.4,7.1 -4.6,14.2 -6.4,21.3 -0.4,1.8 -0.9,3.5 -1.3,5.3 -0.3,1.8 -0.7,3.6 -1,5.3 -0.4,1.8 -0.6,3.5 -0.8,5.3 -0.2,1.8 -0.6,3.5 -0.7,5.2 -0.8,6.9 -0.7,13.7 0.2,20 1,6.3 2.9,12.1 6.1,16.7 3.1,4.6 7.1,7.9 11.2,9.9 4.1,2 8,3 11.2,3.4 3.2,0.5 5.8,0.4 7.6,0.4 1.9,0.2 2.8,0.1 2.8,0.1 z"
       style="fill:#ffffff"
       inkscape:connector-curvature="0" />
    <path
       id="path46"
       d="m 612.11481,699.77441 c 0,0 -0.2,-0.1 -0.6,-0.2 -0.4,-0.1 -1.1,-0.4 -1.9,-0.6 -1.6,-0.5 -4,-1.3 -6.8,-2 -2.8,-0.8 -6.2,-1.6 -9.8,-2.2 -1.8,-0.3 -3.7,-0.6 -5.6,-0.8 -1.9,-0.2 -3.9,-0.4 -5.8,-0.5 -1.9,0 -3.9,0 -5.8,0.1 -1.9,0.1 -3.8,0.5 -5.5,0.9 -0.9,0.2 -1.7,0.5 -2.6,0.8 -0.4,0.2 -0.8,0.3 -1.2,0.5 l -0.6,0.2 -0.6,0.3 c -0.4,0.2 -0.7,0.4 -1.1,0.6 -0.4,0.2 -0.7,0.4 -1,0.7 -0.3,0.2 -0.6,0.4 -0.9,0.7 -0.3,0.3 -0.6,0.5 -0.8,0.7 -0.3,0.3 -0.6,0.5 -0.8,0.7 -0.2,0.3 -0.4,0.5 -0.7,0.8 -0.2,0.3 -0.4,0.5 -0.6,0.8 -0.2,0.3 -0.3,0.5 -0.5,0.8 -0.7,1 -1,2 -1.4,2.8 -0.3,0.8 -0.5,1.5 -0.6,1.9 -0.1,0.5 -0.2,0.7 -0.2,0.7 0,0 0,-0.2 0.1,-0.7 0.1,-0.5 0.2,-1.2 0.4,-2 0.3,-0.8 0.5,-1.9 1.2,-3 0.1,-0.3 0.3,-0.6 0.4,-0.9 l 0.6,-0.9 0.6,-0.9 c 0.2,-0.3 0.5,-0.6 0.7,-0.9 0.3,-0.3 0.5,-0.6 0.8,-0.9 0.3,-0.3 0.6,-0.5 0.9,-0.8 0.3,-0.3 0.6,-0.6 1,-0.8 0.4,-0.2 0.7,-0.5 1.1,-0.7 l 0.6,-0.4 0.6,-0.3 1.2,-0.6 c 0.9,-0.4 1.7,-0.8 2.6,-1.1 1.8,-0.6 3.8,-1.2 5.8,-1.5 2,-0.4 4,-0.6 6.1,-0.8 2.1,-0.1 4.1,-0.2 6.1,-0.1 2,0 4,0.1 5.9,0.3 3.8,0.3 7.4,0.8 10.4,1.2 3,0.5 5.5,1 7.3,1.4 0.9,0.2 1.6,0.4 2.1,0.5 0.5,0.1 0.7,0.2 0.7,0.2 1.8,0.4 2.8,2.2 2.4,4 -0.4,1.8 -2.2,2.8 -4,2.4 0.1,-0.3 0,-0.3 -0.2,-0.4 z"
       style="fill:#ffffff"
       inkscape:connector-curvature="0" />
    <path
       id="path48"
       d="m 634.61481,517.47441 -0.1,-0.1 -0.3,-0.3 c -0.3,-0.3 -0.9,-0.8 -1.6,-1.3 -0.7,-0.5 -1.7,-0.9 -2.7,-1.2 -1.1,-0.2 -2.2,-0.2 -3.5,0.3 -0.6,0.2 -1.3,0.7 -2,1.1 -0.3,0.3 -0.7,0.6 -1,0.9 -0.5,0.5 -0.8,0.7 -1.3,1.2 -1.9,1.6 -3.9,3 -6.1,4.3 -4.3,2.6 -9.2,4.8 -14.3,6.4 -2.5,0.8 -5.2,1.4 -7.8,1.8 -2.6,0.3 -5.2,0.4 -7.7,0.2 -2.5,-0.2 -4.9,-0.8 -7,-1.6 -2.1,-0.9 -4,-2 -5.5,-3.3 -0.8,-0.6 -1.4,-1.3 -2.1,-1.9 -0.6,-0.7 -1.2,-1.3 -1.6,-2 -0.5,-0.7 -0.9,-1.3 -1.3,-1.8 -0.3,-0.6 -0.6,-1.2 -0.9,-1.7 -0.3,-0.5 -0.5,-0.9 -0.7,-1.4 -0.2,-0.4 -0.3,-0.7 -0.5,-1 -0.2,-0.6 -0.4,-0.8 -0.4,-0.8 0,0 0.2,0.3 0.4,0.8 0.1,0.3 0.3,0.6 0.5,1 0.2,0.4 0.4,0.8 0.8,1.3 0.3,0.5 0.7,1 1,1.6 0.4,0.5 0.9,1.1 1.4,1.7 0.5,0.6 1.1,1.2 1.7,1.8 0.7,0.6 1.3,1.2 2.1,1.7 1.5,1.1 3.4,2 5.4,2.7 2,0.7 4.3,1 6.6,1 4.7,0.1 9.6,-1.1 14.3,-3 4.7,-1.9 9.1,-4.3 12.9,-7.1 1.9,-1.3 3.7,-2.8 5,-4.2 0.3,-0.3 0.8,-0.8 1,-1.1 0.4,-0.5 0.9,-0.9 1.3,-1.3 0.9,-0.8 1.9,-1.6 3.1,-2.1 2.2,-1.2 4.8,-1.4 6.8,-1.1 2,0.3 3.7,1 4.9,1.6 1.2,0.6 2.1,1.3 2.7,1.7 0.3,0.2 0.5,0.4 0.7,0.6 l 0.2,0.2 c 1.3,1.2 1.4,3.3 0.2,4.6 -1.2,1.3 -3.3,1.4 -4.6,0.2 0.1,-0.2 0.1,-0.3 0,-0.4 z"
       style="fill:#ffffff"
       inkscape:connector-curvature="0" />
    <path
       id="path50"
       d="m 393.31481,530.77441 c 0,0 0.2,0.2 0.7,0.5 0.4,0.4 1.1,0.9 1.9,1.5 1.6,1.4 3.9,3.4 6.7,6.1 2.8,2.7 6.1,6.2 9.6,10.4 3.5,4.2 7.2,9.2 10.6,15 3.4,5.8 6.6,12.5 8.8,19.9 2.1,7.5 3.3,15.8 2.5,24.3 -0.8,8.5 -3.4,17 -7.5,24.9 -0.5,1 -1,2 -1.6,2.9 l -1.7,2.9 -1.7,2.8 c -0.6,0.9 -1,1.8 -1.6,2.7 -2,3.7 -3.6,7.7 -4.7,11.8 -2.3,8.2 -2.8,16.9 -2.2,25.4 0.7,8.5 2.5,16.7 4.9,24.5 2.4,7.8 5.4,15.1 8.6,21.9 3.2,6.8 6.5,13.1 9.9,18.7 6.6,11.3 13,20.3 17.5,26.4 4.6,6.1 7.5,9.5 7.5,9.5 0,0 -2.9,-3.3 -7.7,-9.3 -4.7,-6 -11.3,-14.8 -18.2,-26.1 -3.5,-5.6 -7,-11.8 -10.3,-18.6 -3.4,-6.8 -6.6,-14.1 -9.2,-21.9 -2.6,-7.8 -4.7,-16.2 -5.6,-24.9 -0.9,-8.7 -0.6,-17.7 1.6,-26.5 1.1,-4.4 2.7,-8.6 4.7,-12.6 0.5,-1 1,-2.1 1.6,-3 l 0.8,-1.4 0.8,-1.4 1.6,-2.8 c 0.5,-0.9 1.1,-1.8 1.5,-2.8 3.7,-7.5 6,-15.6 6.5,-23.4 0.5,-7.9 -0.7,-15.6 -2.9,-22.5 -2.2,-6.9 -5.4,-13.1 -8.7,-18.5 -3.4,-5.4 -7,-10.1 -10.4,-14 -3.4,-3.9 -6.7,-7.1 -9.4,-9.7 -2.7,-2.6 -5,-4.4 -6.5,-5.7 -0.8,-0.6 -1.4,-1.1 -1.8,-1.4 -0.4,-0.3 -0.6,-0.4 -0.6,-0.4 h -0.1 c -1.4,-1.1 -1.7,-3.1 -0.7,-4.6 1.2,-1.4 3.3,-1.7 4.8,-0.6 -0.1,0 0,0 0,0 z"
       style="fill:#ffffff"
       inkscape:connector-curvature="0" />
    <path
       id="path52"
       d="m 528.21481,441.37441 c 0,0 -1,2.7 -2.8,7.4 -0.4,1.2 -0.9,2.5 -1.5,3.9 -0.6,1.4 -1.2,2.9 -1.9,4.5 -0.7,1.6 -1.4,3.3 -2.2,5.1 -0.8,1.8 -1.8,3.6 -2.7,5.6 -1,1.9 -1.9,4 -3,6 -1.1,2 -2.3,4.1 -3.5,6.3 -0.3,0.5 -0.6,1.1 -0.9,1.6 -0.3,0.5 -0.7,1.1 -1,1.6 -0.7,1.1 -1.4,2.2 -2.1,3.3 -0.7,1.1 -1.4,2.2 -2.1,3.3 l -2.4,3.3 -2.4,3.3 c -0.8,1.1 -1.7,2.1 -2.6,3.2 l -2.7,3.3 c -0.4,0.6 -0.9,1.1 -1.4,1.6 l -1.5,1.6 c -1,1 -2,2.1 -2.9,3.1 -1,1 -2.1,2 -3.1,3 -1.1,1 -2.1,2 -3.2,3 l -3.4,2.8 c -2.2,1.9 -4.7,3.5 -7,5.2 l -1.8,1.2 -1.8,1.1 -1.8,1.1 c -0.6,0.4 -1.2,0.8 -1.9,1.1 -2.5,1.3 -5,2.7 -7.7,3.8 -2.6,1.2 -5.2,2.2 -7.8,3.1 -1.3,0.5 -2.6,0.8 -3.9,1.3 -1.3,0.4 -2.6,0.8 -3.9,1.1 -1.3,0.3 -2.6,0.6 -3.8,0.9 -1.3,0.2 -2.5,0.5 -3.8,0.7 -5,0.8 -9.8,1.3 -14.2,1.4 -4.4,0.1 -8.5,0 -12.1,-0.4 -3.6,-0.3 -6.7,-0.8 -9.3,-1.3 -2.6,-0.5 -4.6,-1 -5.9,-1.4 -0.7,-0.2 -1.2,-0.3 -1.6,-0.5 -0.4,-0.1 -0.6,-0.2 -0.6,-0.2 -1.7,-0.6 -2.6,-2.4 -2.1,-4.1 0.6,-1.7 2.4,-2.6 4.1,-2.1 h 0.1 l 0.1,0.1 c 0,0 0.1,0 0.4,0.1 0.3,0.1 0.7,0.3 1.3,0.4 1.2,0.4 3,0.9 5.4,1.4 2.4,0.5 5.2,1.1 8.6,1.5 3.4,0.5 7.2,0.7 11.4,0.8 4.2,0.1 8.7,-0.2 13.5,-0.9 1.2,-0.2 2.4,-0.4 3.6,-0.5 1.2,-0.3 2.4,-0.5 3.7,-0.8 1.2,-0.2 2.5,-0.6 3.7,-0.9 1.2,-0.4 2.5,-0.6 3.8,-1.1 2.5,-0.8 5,-1.6 7.5,-2.7 2.5,-1 5,-2.2 7.5,-3.4 0.6,-0.3 1.2,-0.6 1.8,-1 l 1.8,-1 1.8,-1 c 0.6,-0.3 1.2,-0.7 1.8,-1.1 2.3,-1.6 4.8,-3 6.9,-4.8 l 3.4,-2.6 c 1.1,-0.9 2.1,-1.8 3.2,-2.8 1.1,-0.9 2.1,-1.8 3.2,-2.8 l 3,-3 1.5,-1.5 c 0.5,-0.5 1,-1 1.4,-1.5 0.9,-1 1.8,-2.1 2.7,-3.1 0.9,-1 1.9,-2 2.7,-3.1 0.8,-1.1 1.7,-2.1 2.5,-3.2 0.8,-1.1 1.6,-2.1 2.4,-3.1 0.7,-1.1 1.5,-2.1 2.2,-3.2 0.7,-1.1 1.5,-2.1 2.2,-3.1 0.4,-0.5 0.7,-1 1.1,-1.5 0.3,-0.5 0.6,-1.1 1,-1.6 1.3,-2.1 2.5,-4.1 3.7,-6.1 1.2,-2 2.2,-4 3.2,-5.9 1,-1.9 2,-3.7 2.9,-5.4 0.8,-1.8 1.6,-3.4 2.4,-5 0.7,-1.6 1.4,-3.1 2.1,-4.4 0.6,-1.4 1.1,-2.7 1.6,-3.8 2,-4.5 3.1,-7.2 3.1,-7.2 z"
       style="fill:#ffffff"
       inkscape:connector-curvature="0" />
    <path
       inkscape:connector-curvature="0"
       id="path839"
       d="m 428.26406,400.83008 38.96175,16.70643 44.29103,-31.11749 36.32695,36.28708 -32.61447,46.28699 15.6485,39.6403 53.45263,9.18154 v 51.3967 l -55.64818,9.58073 -16.94587,39.46069 31.27705,44.0714 -36.38679,36.34698 -46.02752,-32.6943 -39.72014,15.64852 -9.38115,53.53239 h -51.37676 l -9.2614,-55.86766 -39.52054,-16.88609 -44.35085,31.43682 -36.14736,-36.40681 32.69431,-46.20714 -15.64857,-39.72014 -53.73198,-9.32128 v -51.17713 l 56.14714,-9.58073 16.74633,-39.26109 -31.2971,-44.35084 36.26715,-36.28708 46.28693,32.69431 39.56047,-15.64857 9.22884,-53.2382 51.36944,-0.37385 z"
       style="opacity:1;fill:#ff8080;stroke:#ffffff;stroke-width:19.95987892px;stroke-linecap:butt;stroke-linejoin:miter;stroke-opacity:1" />
    <circle
       r="121.08164"
       id="circle4"
       style="fill:#00aeef;fill-opacity:1;stroke:none;stroke-width:2.42163253"
       cy="540.76196"
       cx="388.51678" />
    <circle
       id="circle6"
       style="fill:#ffffff;stroke:none;stroke-width:2.42163253"
       r="36.324493"
       cy="540.76196"
       cx="340.08423" />
    <circle
       id="circle8"
       style="fill:#333333;fill-opacity:1;stroke:none;stroke-width:2.42163253"
       r="12.108165"
       cy="540.76196"
       cx="340.08423" />
    <circle
       id="circle10"
       style="fill:#ffffff;stroke:none;stroke-width:2.42163253"
       r="36.324493"
       cy="540.76196"
       cx="436.94952" />
    <circle
       id="circle12"
       style="fill:#1a1a1a;fill-opacity:1;stroke:none;stroke-width:2.42163253"
       r="12.108165"
       cy="540.76196"
       cx="436.94952" />
  </g>
  <text
     xml:space="preserve"
     style="font-style:normal;font-variant:normal;font-weight:normal;font-stretch:normal;font-size:98.05847931px;line-height:1.25;font-family:Ubuntu;-inkscape-font-specification:Ubuntu;letter-spacing:0px;word-spacing:0px;fill:#000000;fill-opacity:1;stroke:none;stroke-width:2.45146203"
     x="228.06689"
     y="678.5296"
     id="text899"><tspan
       sodipodi:role="line"
       id="tspan897"
       x="228.06689"
       y="678.5296"
       style="stroke-width:2.45146203">NAZAR</tspan></text>
  <text
     xml:space="preserve"
     style="font-style:normal;font-variant:normal;font-weight:normal;font-stretch:normal;font-size:40px;line-height:1.25;font-family:Ubuntu;-inkscape-font-specification:Ubuntu;letter-spacing:0px;word-spacing:0px;fill:#000000;fill-opacity:1;stroke:none"
     x="95.494591"
     y="738.30511"
     id="text903"><tspan
       sodipodi:role="line"
       id="tspan901"
       x="95.494591"
       y="738.30511">Electronic Component Detection</tspan></text>
</svg>
