<?xml version="1.0" encoding="UTF-8" standalone="no"?>
<svg
   xmlns:dc="http://purl.org/dc/elements/1.1/"
   xmlns:cc="http://creativecommons.org/ns#"
   xmlns:rdf="http://www.w3.org/1999/02/22-rdf-syntax-ns#"
   xmlns:svg="http://www.w3.org/2000/svg"
   xmlns="http://www.w3.org/2000/svg"
   xmlns:sodipodi="http://sodipodi.sourceforge.net/DTD/sodipodi-0.dtd"
   xmlns:inkscape="http://www.inkscape.org/namespaces/inkscape"
   enable-background="new 0 0 1000 1000"
   version="1.1"
   viewBox="0 0 1000 1000"
   xml:space="preserve"
   id="svg54"
   sodipodi:docname="Mainicon.svg"
   inkscape:version="0.92.2 5c3e80d, 2017-08-06"><metadata
     id="metadata60"><rdf:RDF><cc:Work
         rdf:about=""><dc:format>image/svg+xml</dc:format><dc:type
           rdf:resource="http://purl.org/dc/dcmitype/StillImage" /></cc:Work></rdf:RDF></metadata><defs
     id="defs58" /><sodipodi:namedview
     pagecolor="#ffffff"
     bordercolor="#666666"
     borderopacity="1"
     objecttolerance="10"
     gridtolerance="10"
     guidetolerance="10"
     inkscape:pageopacity="0"
     inkscape:pageshadow="2"
     inkscape:window-width="1920"
     inkscape:window-height="1017"
     id="namedview56"
     showgrid="false"
     inkscape:zoom="0.36125677"
     inkscape:cx="-62.739102"
     inkscape:cy="251.61413"
     inkscape:window-x="0"
     inkscape:window-y="27"
     inkscape:window-maximized="1"
     inkscape:current-layer="svg54" /><circle
     style="opacity:1;fill:#ffffff;fill-opacity:1;stroke:#ffffff;stroke-width:100.98033142;stroke-miterlimit:4;stroke-dasharray:none;stroke-opacity:0"
     id="path853"
     cx="500"
     cy="496.20322"
     r="395.62994"
     inkscape:export-xdpi="55.088303"
     inkscape:export-ydpi="55.088303" /><g
     id="g896"
     inkscape:export-xdpi="55.088303"
     inkscape:export-ydpi="55.088303"><path
       id="path2"
       stroke-width="3.3989"
       stroke-miterlimit="10"
       stroke="#fff"
       fill="#00AEEF"
       d="m491.5 222.7s-53-67.8-98.7 0c0 0-76.8-19.9-78.6 63.8 0 0-47.5 19.9-32.9 79.8 0 0-47.5 35.9-29.2 103.7 0 0-57.7 47.9-4.2 137.6 0 0-3.5 38.2 27.9 43.9 0 0-10.5 87.8 82.5 101.7 0 0 23.8 77.8 140.7-14v-506l-7.5-10.5" /><path
       id="path4"
       fill="#fff"
       d="m396 222l0.3 1.2c0.2 0.8 0.5 2 1.1 3.6 1.1 3 2.9 7.4 6.2 11.9 1.6 2.2 3.7 4.4 6.1 6.4s5.4 3.6 8.6 4.8c6.5 2.4 14.3 2.6 21.8 1.1l2.9-0.5c1-0.2 1.9-0.4 3-0.4 1-0.1 2-0.3 3.1-0.3 1 0 2-0.1 3-0.1 4 0 8 0.7 11.6 2.2s6.6 3.7 9 6.2c2.4 2.6 4.1 5.4 5.3 8.1 1.3 2.7 2.1 5.4 2.6 7.7 0.6 2.4 0.9 4.4 1.1 6.2 0.4 3.4 0.3 5.4 0.3 5.4s0-2-0.6-5.4c-0.3-1.7-0.7-3.7-1.4-6s-1.6-4.8-3-7.4-3.1-5.2-5.5-7.5-5.3-4.2-8.7-5.4c-3.3-1.2-7.1-1.7-10.8-1.5-0.9 0-1.9 0.1-2.8 0.2s-1.9 0.3-2.8 0.4-1.9 0.4-2.8 0.6l-2.9 0.7c-3.9 1-8 1.5-12.1 1.6-4.1 0-8.1-0.5-11.9-1.7s-7.3-2.9-10.2-5c-3-2.1-5.4-4.6-7.4-7-4-4.9-6.3-9.7-7.7-13.1-0.7-1.7-1.1-3.1-1.4-4s-0.4-1.6-0.4-1.5c-0.4-1.8 0.7-3.5 2.5-3.9 1.8-0.5 3.5 0.6 3.9 2.4z" /><path
       id="path6"
       fill="#fff"
       d="m316.2 283.9c1.4 1.1 2.9 2.3 4.5 3.4s3.1 2.2 4.7 3.2 3.2 2 4.9 2.9c0.8 0.5 1.7 0.9 2.5 1.3s1.7 0.9 2.6 1.3 1.7 0.8 2.6 1.2 1.7 0.8 2.6 1.1c1.8 0.7 3.5 1.3 5.4 1.9l2.7 0.8 2.8 0.6c1.8 0.3 3.7 0.6 5.6 0.7 0.9 0.1 1.9 0.1 2.8 0.1h1.4l1.4-0.1c0.9-0.1 1.9-0.1 2.8-0.3s1.8-0.3 2.7-0.6 1.8-0.5 2.7-0.8l2.6-1 2.4-1.3c0.4-0.2 0.8-0.5 1.2-0.7l1.1-0.8c0.4-0.3 0.8-0.5 1.1-0.8l1.1-0.9 1.1-0.9c0.4-0.3 0.7-0.6 1-1l1.9-2.1c0.6-0.7 1.2-1.5 1.8-2.2 1.2-1.5 2.1-3.2 3.2-4.8 0.5-0.8 0.9-1.7 1.4-2.5l1.3-2.6 0.1-0.1s0-0.1 0.1-0.1c0.6-0.7 1.2-1.4 1.9-2 0.6-0.6 1.3-1.3 2-1.9 1.4-1.2 2.8-2.3 4.3-3.3 0.8-0.5 1.5-1 2.3-1.4s1.6-0.8 2.5-1.2c0.4-0.2 0.9-0.3 1.3-0.5s0.9-0.3 1.3-0.4 0.9-0.2 1.3-0.3c0.5-0.1 0.9-0.1 1.4-0.2 0.9-0.1 1.8 0 2.7 0.1 0.5 0.1 0.9 0.1 1.4 0.2 0.4 0.1 0.9 0.2 1.3 0.4l1.3 0.5 1.2 0.6c0.4 0.2 0.8 0.5 1.1 0.7 0.4 0.3 0.8 0.5 1.1 0.8l1 0.9c0.3 0.3 0.6 0.6 0.9 1 0.6 0.6 1.2 1.4 1.7 2 0.5 0.7 1 1.5 1.5 2.2l1.3 2.3-1.5-2.2c-0.5-0.7-1-1.4-1.6-2.1-0.6-0.6-1.1-1.3-1.8-1.9-0.3-0.3-0.6-0.6-1-0.9l-1-0.8c-0.3-0.3-0.7-0.5-1.1-0.7s-0.7-0.5-1.1-0.6c-0.4-0.2-0.8-0.4-1.2-0.5l-1.2-0.4c-0.4-0.1-0.8-0.2-1.3-0.3-0.4-0.1-0.9-0.1-1.3-0.2-0.9-0.1-1.7 0-2.6 0.1-0.4 0-0.8 0.1-1.3 0.2l-1.2 0.3c-0.4 0.1-0.8 0.2-1.2 0.4-0.4 0.1-0.8 0.3-1.2 0.5-0.8 0.3-1.5 0.8-2.3 1.2-0.7 0.4-1.5 0.9-2.2 1.4-1.4 1-2.7 2.2-4 3.4-0.6 0.6-1.2 1.2-1.8 1.9-0.6 0.6-1.1 1.3-1.6 2l0.1-0.2-1.2 2.7c-0.4 0.9-0.8 1.8-1.3 2.7-1 1.7-1.9 3.5-3.1 5.2-0.6 0.8-1.1 1.7-1.7 2.5l-2 2.3c-0.3 0.4-0.7 0.8-1 1.1l-1.1 1.1-1.1 1.1-1.2 0.9-1.2 0.9c-0.4 0.3-0.8 0.6-1.3 0.9-0.9 0.5-1.8 1.1-2.7 1.6l-2.8 1.3c-0.9 0.4-1.9 0.7-2.9 1-1 0.4-2 0.5-3 0.8s-2 0.4-3.1 0.5l-1.5 0.2-1.5 0.1c-1 0-2.1 0.1-3.1 0-2.1 0-4.1-0.2-6.1-0.5l-3-0.5-3-0.7c-2-0.5-3.9-1.1-5.8-1.7-1-0.3-1.9-0.7-2.9-1s-1.9-0.7-2.8-1.1-1.9-0.8-2.8-1.2-1.8-0.8-2.7-1.3c-1.8-0.9-3.6-1.8-5.3-2.8-1.8-1-3.5-2-5.2-3.1s-3.4-2.2-5.1-3.5c-1.4-1.1-1.7-3.1-0.7-4.6 1.1-1.4 3.1-1.7 4.6-0.7 0-0.3 0-0.2 0.1-0.2z" /><path
       id="path8"
       fill="#fff"
       d="m279.3 363.6s0.2-0.1 0.4-0.3c0.3-0.2 0.7-0.5 1.3-0.8 1.1-0.7 2.7-1.7 4.8-2.9 4.2-2.4 10.2-5.6 17.9-8.7 7.6-3 16.9-5.9 27.1-7.2 5.1-0.7 10.5-1 15.9-0.7 1.4 0.1 2.7 0.2 4.1 0.3 1.4 0.2 2.7 0.3 4.1 0.5l2 0.4 1 0.2h0.7l0.5 0.1 3.9 1c5.4 1.8 10.2 4.4 14.8 7.3 1.1 0.8 2.2 1.5 3.3 2.3s2.1 1.6 3.2 2.4l1.6 1.2 1.5 1.2c1 0.8 2 1.7 2.9 2.5 3.8 3.4 7.3 6.8 10.5 10.1 0.8 0.8 1.6 1.7 2.4 2.5s1.5 1.6 2.3 2.4c1.5 1.6 2.9 3.2 4.2 4.7 2.7 3 5.1 5.8 7.2 8.3s4 4.7 5.5 6.5c3 3.6 4.7 5.7 4.7 5.7s-1.8-2-5-5.5c-1.6-1.7-3.5-3.8-5.7-6.3-2.2-2.4-4.7-5.1-7.5-8-1.4-1.5-2.8-3-4.4-4.5l-2.3-2.3c-0.8-0.8-1.6-1.6-2.5-2.4-3.3-3.2-7-6.4-10.8-9.6-1-0.8-2-1.5-3-2.3l-1.5-1.2c-0.5-0.4-1-0.7-1.6-1.1-1.1-0.7-2.1-1.5-3.2-2.2l-3.3-2.1c-4.5-2.6-9.3-5-14.1-6.4l-3.9-0.9-0.5-0.1-0.4-0.1-1-0.1-1.9-0.3c-1.3-0.1-2.6-0.2-3.9-0.4-1.3 0-2.6-0.1-3.9-0.1-5.2-0.1-10.2 0.4-15.1 1.2-9.7 1.7-18.5 4.7-25.7 7.9s-12.9 6.5-16.8 8.9c-1.9 1.2-3.4 2.2-4.4 2.9-0.5 0.4-0.9 0.6-1.1 0.8s-0.4 0.3-0.4 0.3c-1.4 1.1-3.5 0.8-4.6-0.6s-0.8-3.5 0.6-4.6c0.1 0.2 0.1 0.2 0.1 0.1z" /><path
       id="path10"
       fill="#fff"
       d="m247.5 604.4s1.1-0.1 3.3-0.4 5.4-0.7 9.4-1.5c4-0.7 8.9-1.8 14.5-3.2 5.5-1.4 11.8-3.3 18.4-5.7s13.7-5.4 20.8-9.2 14.3-8.3 21.1-13.9 13.1-12.2 18.3-19.7c5.2-7.6 9.2-16.1 11.7-25.2 1.2-4.5 2.1-9.1 2.7-13.8 0.5-4.7 0.8-9.3 0.7-14-0.1-9.3-1.5-18.4-3.4-27.1-1-4.3-2.1-8.6-3.3-12.7-0.5-2.1-1.3-4-2.2-5.9-0.8-1.9-1.8-3.7-2.7-5.5-3.9-7.1-9-13.1-14.9-17-2.9-1.9-6.1-3.3-9.2-4-3.1-0.8-6.2-0.9-9.1-0.7-5.8 0.5-10.6 2.3-14.3 4.1-0.9 0.5-1.8 0.9-2.6 1.3s-1.6 0.9-2.3 1.3-1.3 0.8-1.9 1.1c-0.6 0.4-1.1 0.7-1.5 1-1.8 1.3-2.8 1.9-2.8 1.9s1-0.7 2.8-2c0.5-0.3 1-0.7 1.5-1.1 0.6-0.4 1.2-0.8 1.9-1.2s1.4-0.9 2.2-1.4c0.8-0.4 1.7-0.9 2.6-1.4 3.7-1.8 8.5-3.8 14.4-4.4 2.9-0.2 6.1-0.3 9.3 0.5 3.2 0.7 6.5 2 9.6 4 6.2 3.8 11.5 9.9 15.7 17.1 1 1.8 2 3.7 2.9 5.6 0.4 1 0.9 1.9 1.3 2.9l0.6 1.5 0.5 1.6c1.3 4.1 2.6 8.4 3.6 12.7 2.1 8.7 3.7 18 4 27.5 0.2 4.7 0 9.5-0.4 14.4-0.5 4.8-1.3 9.6-2.5 14.3-2.4 9.4-6.4 18.4-11.6 26.5-5.3 8-11.7 15.1-18.6 21s-14.3 10.8-21.6 14.9c-7.3 4-14.5 7.3-21.2 9.9-6.8 2.6-13.1 4.7-18.8 6.3s-10.7 2.8-14.8 3.6c-4.2 0.9-7.4 1.4-9.7 1.8-2.2 0.3-3.5 0.5-3.5 0.5-1.8 0.2-3.4-1.1-3.6-2.9-0.5-1.6 0.8-3.2 2.7-3.4z" /><path
       id="path12"
       fill="#fff"
       d="m500.9 490.9s-0.2 0.2-0.6 0.4c-0.4 0.3-1 0.8-1.8 1.4-1.5 1.2-3.8 3.1-6.5 5.7s-6 5.8-9.4 9.7-7.1 8.6-10.4 14c-3.4 5.4-6.5 11.6-8.7 18.5s-3.4 14.6-2.9 22.5 2.8 15.9 6.5 23.4c0.4 1 0.9 1.9 1.5 2.8l1.6 2.8 0.8 1.4 0.8 1.4c0.6 0.9 1.1 2 1.6 3 2 4 3.6 8.3 4.7 12.6 2.2 8.7 2.5 17.8 1.6 26.5s-3 17.1-5.6 24.9-5.8 15.2-9.2 21.9c-3.4 6.8-6.9 13-10.3 18.6-6.9 11.2-13.5 20-18.2 26.1-4.7 6-7.7 9.3-7.7 9.3s2.9-3.3 7.5-9.5c4.6-6.1 10.9-15.1 17.5-26.4 3.3-5.7 6.7-11.9 9.9-18.7s6.2-14.1 8.6-21.9 4.3-16 4.9-24.5c0.7-8.5 0.1-17.2-2.2-25.4-1.1-4.1-2.7-8.1-4.7-11.8-0.5-0.9-0.9-1.8-1.6-2.7l-1.7-2.8-1.7-2.9c-0.6-0.9-1.2-1.9-1.6-2.9-4.1-7.8-6.7-16.4-7.5-24.9-0.7-8.5 0.4-16.8 2.5-24.3 2.2-7.5 5.4-14.1 8.8-19.9s7.1-10.8 10.6-15 6.8-7.6 9.6-10.4c2.8-2.7 5.1-4.8 6.7-6.1 0.8-0.7 1.4-1.2 1.9-1.5 0.4-0.3 0.7-0.5 0.7-0.5 1.4-1.1 3.5-0.9 4.6 0.6s0.9 3.5-0.6 4.6c0.1-0.1 0.1-0.1 0 0z" /><path
       id="path14"
       fill="#fff"
       d="m362 396.2s1.1 2.6 3 7.3c0.5 1.2 1 2.4 1.6 3.8s1.3 2.8 2.1 4.4c0.7 1.6 1.5 3.3 2.4 5 0.8 1.8 1.9 3.5 2.9 5.4s2 3.9 3.2 5.9 2.4 4 3.7 6.1c0.3 0.5 0.6 1.1 1 1.6s0.7 1 1.1 1.5c0.7 1 1.4 2.1 2.2 3.1 0.7 1.1 1.5 2.1 2.2 3.2 0.8 1 1.6 2.1 2.4 3.1 0.8 1.1 1.6 2.1 2.5 3.2 0.8 1.1 1.8 2.1 2.7 3.1s1.8 2.1 2.7 3.1c0.4 0.5 0.9 1 1.4 1.5l1.5 1.5 3 3c1 1 2.1 1.9 3.2 2.8s2.1 1.9 3.2 2.8l3.4 2.6c2.2 1.8 4.6 3.2 6.9 4.8 0.6 0.4 1.2 0.8 1.8 1.1l1.8 1 1.8 1c0.6 0.4 1.2 0.7 1.8 1 2.5 1.2 4.9 2.5 7.5 3.4 2.5 1.1 5 1.9 7.5 2.7 1.2 0.4 2.5 0.7 3.8 1.1 1.2 0.3 2.5 0.7 3.7 0.9 1.2 0.3 2.5 0.5 3.7 0.8 1.2 0.2 2.4 0.4 3.6 0.5 4.8 0.6 9.3 1 13.5 0.9 4.2 0 8-0.3 11.4-0.8 3.4-0.4 6.3-1 8.6-1.5 2.4-0.5 4.2-1.1 5.4-1.4 0.6-0.2 1.1-0.3 1.3-0.4 0.3-0.1 0.4-0.1 0.4-0.1h0.1c1.7-0.6 3.6 0.3 4.2 2s-0.3 3.6-2 4.2h-0.1s-0.2 0.1-0.6 0.2-0.9 0.3-1.6 0.5c-1.4 0.4-3.4 0.9-5.9 1.4-2.6 0.5-5.7 1-9.3 1.3-3.6 0.4-7.6 0.5-12.1 0.4-4.4-0.1-9.2-0.6-14.2-1.4-1.2-0.2-2.5-0.5-3.8-0.7-1.3-0.3-2.5-0.6-3.8-0.9s-2.6-0.7-3.9-1.1-2.6-0.8-3.9-1.3c-2.6-1-5.2-1.9-7.8-3.1-2.6-1.1-5.1-2.5-7.7-3.8-0.6-0.3-1.3-0.7-1.9-1.1l-1.8-1.1-1.8-1.1-1.8-1.2c-2.3-1.7-4.8-3.3-7-5.2l-3.4-2.8c-1.1-1-2.1-2-3.2-3-1-1-2.1-2-3.1-3s-2-2.1-2.9-3.1l-1.5-1.6c-0.5-0.5-1-1-1.4-1.6l-2.7-3.3c-0.9-1.1-1.8-2.1-2.6-3.2l-2.4-3.3-2.4-3.3c-0.7-1.1-1.4-2.2-2.1-3.3s-1.4-2.2-2.1-3.3c-0.3-0.5-0.7-1.1-1-1.6s-0.6-1.1-0.9-1.6c-1.2-2.2-2.4-4.3-3.5-6.3s-2.1-4.1-3-6-1.9-3.8-2.7-5.6-1.5-3.5-2.2-5.1-1.3-3.1-1.9-4.5c-0.5-1.4-1-2.7-1.5-3.9-1.7-4.9-2.7-7.6-2.7-7.6z" /><path
       id="path16"
       fill="#fff"
       d="m356.5 750.5s0.4-0.3 1.2-0.7c0.8-0.5 1.9-1.2 3.3-2.2 2.9-2 6.9-4.9 11.5-8.7s9.8-8.5 14.8-14 9.9-11.9 13.7-18.8c1.9-3.5 3.5-7.1 4.7-10.8s2-7.5 2.4-11.2c0.8-7.4-0.6-14.5-2.6-20.1-1-2.8-2.3-5.3-3.5-7.5-1.2-2.1-2.4-3.9-3.4-5.4-0.5-0.7-1-1.4-1.4-1.9s-0.8-1-1.1-1.4c-0.6-0.7-0.9-1.1-0.9-1.1s0.3 0.4 1 1.1c0.3 0.4 0.7 0.8 1.2 1.3 0.4 0.5 0.9 1.2 1.5 1.9 1.1 1.4 2.4 3.2 3.7 5.2 1.3 2.1 2.7 4.6 3.9 7.4s2.2 6 2.9 9.5 1 7.2 0.8 11.1-0.8 7.9-1.9 11.8-2.6 7.8-4.4 11.5c-3.6 7.5-8.3 14.3-13.3 20.3-4.9 6-10 11.1-14.6 15.3s-8.6 7.4-11.4 9.6c-1.4 1.1-2.6 1.9-3.4 2.5s-1.3 0.9-1.3 0.9c-1.5 1-3.5 0.7-4.5-0.8s-0.7-3.5 0.8-4.5l0.3-0.3z" /><path
       id="path18"
       fill="#fff"
       d="m355.3 633.2l0.8-1.6c0.5-1 1.2-2.5 2.2-4.4 2-3.7 5-8.9 9.6-14.5 2.3-2.8 4.9-5.8 8.2-8.5 3.2-2.7 7-5.3 11.6-6.8 4.5-1.5 9.7-1.8 14.5-0.4 4.8 1.3 9 4 12.7 7.2s6.8 6.8 9.6 10.5 5.3 7.5 7.4 11.5c2.1 3.9 3.7 7.9 5 11.7 0.6 1.9 1.2 3.8 1.7 5.6s0.9 3.6 1.3 5.3c0.9 3.3 2.3 6.2 4.1 8.4 1.7 2.2 3.9 3.5 5.8 4.2 0.9 0.4 1.9 0.5 2.6 0.6 0.8 0 1.5 0.1 2 0.1 1.1-0.1 1.7-0.1 1.7-0.1s-0.6 0.1-1.7 0.2c-0.5 0.1-1.2 0-2 0-0.8-0.1-1.7-0.2-2.7-0.5-2-0.6-4.3-1.8-6.2-4s-3.5-5.1-4.6-8.5c-0.6-1.7-1-3.4-1.6-5.2s-1.2-3.6-1.9-5.5c-1.4-3.7-3.2-7.5-5.3-11.2s-4.8-7.3-7.7-10.9c-2.9-3.5-6-6.8-9.6-9.6-3.5-2.8-7.5-5-11.6-5.9-4.1-1-8.3-0.6-12 0.9s-7 3.8-9.8 6.4-5.1 5.4-7.1 8.1c-4 5.4-6.7 10.5-8.4 14-0.9 1.8-1.5 3.2-1.9 4.2-0.4 0.9-0.6 1.4-0.6 1.4-0.7 1.7-2.6 2.5-4.3 1.8-1.7-0.9-2.5-2.8-1.8-4.5z" /><path
       id="path20"
       fill="#fff"
       d="m360.8 537.2s0.3-0.2 0.8-0.6 1.3-0.9 2.4-1.6c1-0.7 2.3-1.4 3.8-2.3 1.5-0.8 3.2-1.8 5.1-2.7s4-1.8 6.2-2.7c2.3-0.8 4.7-1.6 7.3-2.3 2.6-0.6 5.3-1.1 8.1-1.2 1.4-0.1 2.8 0 4.2 0 1.4 0.2 2.8 0.2 4.2 0.6 1.4 0.2 2.7 0.7 4.1 1.2 0.7 0.2 1.3 0.6 1.9 0.8 0.6 0.3 1.3 0.6 1.9 1s1.2 0.7 1.8 1.1 1.1 0.8 1.6 1.2c1.1 0.8 2 1.8 3 2.7l0.7 0.7 0.6 0.8 1.2 1.5c0.4 0.5 0.7 1 1.1 1.5 0.3 0.5 0.7 1 1 1.5 0.2 0.3 0.3 0.5 0.5 0.7 0.1 0.3 0.3 0.5 0.4 0.8 0.3 0.5 0.5 1 0.8 1.5s0.5 1 0.8 1.5l0.6 1.5c0.4 1 0.8 1.9 1.1 2.7 0.3 0.9 0.6 1.7 0.8 2.5 0.3 0.8 0.5 1.5 0.7 2.2s0.3 1.3 0.5 1.9c0.6 2.3 0.9 3.7 0.9 3.7s-0.4-1.3-1.1-3.6c-0.2-0.6-0.3-1.2-0.6-1.9s-0.5-1.4-0.8-2.2-0.6-1.6-0.9-2.5c-0.4-0.8-0.8-1.7-1.2-2.7-0.2-0.5-0.4-0.9-0.7-1.4s-0.5-0.9-0.8-1.4-0.6-1-0.8-1.5c-0.1-0.2-0.3-0.5-0.4-0.7-0.2-0.2-0.3-0.5-0.5-0.7-0.3-0.5-0.7-1-1-1.4-0.3-0.5-0.7-1-1.1-1.4-0.4-0.5-0.8-0.9-1.2-1.4l-0.6-0.7c-0.2-0.2-0.5-0.4-0.7-0.6-0.9-0.8-1.8-1.7-2.9-2.4-0.5-0.4-1-0.8-1.6-1.1s-1.1-0.6-1.7-0.9-1.2-0.6-1.8-0.8-1.2-0.5-1.8-0.7c-1.3-0.3-2.5-0.7-3.9-0.9-1.3-0.3-2.6-0.3-3.9-0.4-1.3 0-2.6 0-3.9 0.2-2.6 0.2-5.1 0.8-7.5 1.5s-4.7 1.6-6.8 2.5-4.1 1.9-5.8 2.9c-1.8 0.9-3.4 1.9-4.7 2.8-1.4 0.9-2.6 1.7-3.5 2.4-1 0.7-1.7 1.2-2.2 1.6s-0.7 0.6-0.7 0.6c-0.9 0.7-2.1 0.5-2.8-0.3-1.3-1.1-1.2-2.4-0.2-3.1-0.1 0 0 0 0 0z" /><path
       id="path22"
       fill="#fff"
       d="m413.8 439.8s0.9 0.1 2.7 0.2 4.3 0.1 7.6-0.4c3.2-0.5 7.1-1.4 11.2-3.4s8.1-5.3 11.2-9.9c3.2-4.6 5.1-10.4 6.1-16.7 0.9-6.3 1-13.1 0.2-20-0.1-1.7-0.4-3.5-0.7-5.2-0.3-1.8-0.5-3.5-0.8-5.3s-0.7-3.5-1-5.3c-0.4-1.8-0.9-3.5-1.3-5.3-1.7-7.1-4-14.2-6.4-21.3-1.2-3.5-2.6-7-3.8-10.5l-0.5-1.3c-0.2-0.4-0.3-0.9-0.5-1.4-0.3-1-0.6-1.9-0.8-2.8-0.5-1.9-0.8-3.8-0.9-5.8-0.3-3.9 0-7.8 1-11.6l0.2-0.7 0.1-0.3 0.2-0.4c0.2-0.4 0.3-0.8 0.5-1.3 0.5-1.1 1-1.9 1.6-2.7 1.2-1.6 2.6-3 4.2-4.2 3.1-2.3 6.8-3.8 10.6-4.3 3.7-0.5 7.5-0.1 10.8 1 3.4 1 6.4 2.6 9.1 4.4s5 3.9 7.1 5.9c4.2 4.2 7.4 8.5 9.9 12.4 0.7 1 1.2 2 1.8 2.9s1.1 1.8 1.6 2.7c1 1.8 1.9 3.4 2.6 4.9s1.4 2.8 2 4c0.5 1.2 1 2.2 1.4 3 0.7 1.6 1.1 2.5 1.1 2.5 0.7 1.6 0 3.6-1.6 4.3s-3.6 0-4.3-1.6v-0.2s-0.4-0.8-1-2.4c-0.3-0.8-0.7-1.8-1.2-2.9s-1.1-2.4-1.8-3.9-1.5-3-2.4-4.7c-0.4-0.9-1-1.7-1.5-2.6s-1-1.8-1.6-2.8c-2.3-3.8-5.2-7.9-8.8-11.8-1.8-1.9-3.9-3.8-6.2-5.4s-4.9-3-7.6-3.9c-2.8-0.9-5.7-1.4-8.7-1-3 0.3-6 1.4-8.5 3.2-1.3 0.9-2.4 2-3.4 3.2-0.5 0.6-0.9 1.3-1.2 1.8-0.2 0.2-0.3 0.8-0.5 1.1l-0.1 0.2v0.1l-0.1 0.3-0.4 0.4c-1 3.2-1.3 6.7-1.1 10.2 0.1 1.7 0.3 3.5 0.7 5.2 0.2 0.9 0.4 1.7 0.6 2.5 0.1 0.4 0.3 0.9 0.4 1.3l0.4 1.3c1.2 3.6 2.4 7.1 3.6 10.7 2.2 7.2 4.3 14.5 5.8 21.7 0.4 1.8 0.8 3.6 1.1 5.4l0.9 5.4c0.3 1.8 0.5 3.6 0.7 5.4s0.5 3.6 0.5 5.3c0.6 7.1 0.3 14-0.8 20.4-1.2 6.4-3.3 12.4-6.7 17-3.3 4.6-7.6 8-11.8 9.9-4.2 2-8.2 2.8-11.4 3.2-3.3 0.4-5.9 0.3-7.6 0.2-1.6-0.1-2.5-0.3-2.5-0.3z" /><path
       id="path24"
       fill="#fff"
       d="m274.8 648.4s0.3-0.1 0.7-0.2c0.5-0.1 1.2-0.3 2.1-0.5 1.8-0.4 4.3-0.9 7.3-1.4s6.6-1 10.4-1.2c1.9-0.1 3.9-0.2 5.9-0.3 2 0 4.1 0 6.1 0.1 2.1 0.2 4.1 0.4 6.1 0.8 2 0.3 3.9 0.9 5.8 1.5 0.9 0.3 1.8 0.7 2.6 1.1l1.2 0.6 0.6 0.3 0.6 0.4c0.4 0.2 0.7 0.5 1.1 0.7s0.7 0.5 1 0.8 0.6 0.5 0.9 0.8 0.5 0.6 0.8 0.9 0.5 0.5 0.7 0.9l0.6 0.9 0.6 0.9c0.1 0.3 0.3 0.6 0.4 0.9 0.6 1.1 0.9 2.2 1.2 3 0.2 0.8 0.3 1.5 0.4 2s0.1 0.7 0.1 0.7-0.1-0.2-0.2-0.7c-0.1-0.4-0.3-1.1-0.6-1.9-0.4-0.8-0.7-1.8-1.4-2.8-0.2-0.3-0.3-0.5-0.5-0.8s-0.4-0.5-0.6-0.8-0.4-0.5-0.7-0.8c-0.2-0.3-0.5-0.5-0.8-0.7s-0.5-0.5-0.8-0.7-0.6-0.4-0.9-0.7c-0.3-0.2-0.6-0.5-1-0.7s-0.7-0.4-1.1-0.6l-0.6-0.3-0.6-0.2c-0.4-0.2-0.8-0.3-1.2-0.5-0.8-0.3-1.7-0.5-2.6-0.8-1.8-0.4-3.6-0.7-5.5-0.9s-3.9-0.2-5.8-0.1c-2 0.1-3.9 0.2-5.8 0.5-1.9 0.2-3.8 0.5-5.6 0.8-3.6 0.6-7 1.4-9.8 2.2s-5.2 1.5-6.8 2c-0.8 0.3-1.4 0.5-1.9 0.6-0.4 0.2-0.6 0.2-0.6 0.2-1.7 0.6-3.6-0.3-4.2-2s0.3-3.6 2-4.2c0.2 0.2 0.3 0.2 0.4 0.2z" /><path
       id="path26"
       fill="#fff"
       d="m249.7 467.7l0.2-0.2c0.2-0.2 0.4-0.4 0.7-0.6 0.6-0.5 1.5-1.1 2.7-1.7s2.8-1.3 4.9-1.6c2-0.3 4.6 0 6.8 1.1 1.1 0.5 2.1 1.3 3.1 2.1l1.3 1.3c0.3 0.3 0.7 0.8 1 1.1 1.4 1.4 3.2 2.8 5 4.2 3.8 2.7 8.2 5.2 12.9 7.1s9.6 3.1 14.3 3c2.3 0 4.6-0.3 6.6-1s3.9-1.6 5.4-2.7c0.8-0.5 1.5-1.1 2.1-1.7s1.2-1.2 1.7-1.8 1-1.2 1.4-1.7c0.4-0.6 0.7-1.1 1-1.6s0.6-0.9 0.8-1.3 0.4-0.7 0.5-1c0.3-0.5 0.4-0.8 0.4-0.8s-0.1 0.3-0.4 0.8c-0.1 0.3-0.3 0.6-0.5 1s-0.4 0.9-0.7 1.4-0.6 1-0.9 1.7c-0.4 0.6-0.8 1.2-1.3 1.8s-1.1 1.3-1.6 2c-0.6 0.6-1.3 1.3-2.1 1.9-1.5 1.3-3.4 2.4-5.5 3.3s-4.5 1.4-7 1.6-5.1 0.1-7.7-0.2c-2.6-0.4-5.2-1-7.8-1.8-5.1-1.6-10-3.8-14.3-6.4-2.2-1.3-4.1-2.7-6.1-4.3-0.5-0.5-0.8-0.7-1.3-1.2-0.3-0.3-0.7-0.6-1-0.9-0.7-0.5-1.3-0.9-2-1.1-1.3-0.5-2.4-0.5-3.5-0.3s-2 0.7-2.7 1.2-1.3 0.9-1.6 1.3l-0.3 0.3-0.1 0.1v0.1c-1.2 1.3-3.3 1.4-4.6 0.1-1.3-1.2-1.4-3.3-0.1-4.6 0.2 0.1 0.3 0 0.3 0z" /><path
       id="path28"
       stroke-width="3.3989"
       stroke-miterlimit="10"
       stroke="#fff"
       fill="#00AEEF"
       d="m508.5 222.7s53-67.8 98.7 0c0 0 76.8-19.9 78.6 63.8 0 0 47.5 19.9 32.9 79.8 0 0 47.5 35.9 29.2 103.7 0 0 57.7 47.9 4.2 137.6 0 0 3.5 38.2-27.9 43.9 0 0 10.5 87.8-82.5 101.7 0 0-23.8 77.8-140.7-14v-506l7.5-10.5" /><path
       id="path30"
       fill="#fff"
       d="m610.4 223.4s-0.1 0.6-0.4 1.5c-0.3 1-0.7 2.3-1.4 4-1.4 3.4-3.7 8.2-7.7 13.1-2 2.4-4.5 4.9-7.4 7-3 2.1-6.4 3.9-10.2 5-3.8 1.2-7.8 1.7-11.9 1.7s-8.1-0.6-12.1-1.6l-2.9-0.7c-1-0.2-1.9-0.5-2.8-0.6s-1.8-0.3-2.8-0.4c-0.9-0.1-1.9-0.2-2.8-0.2-3.7-0.2-7.5 0.3-10.8 1.5-3.4 1.2-6.3 3.1-8.7 5.4s-4.1 4.9-5.5 7.5-2.3 5.1-3 7.4-1.1 4.3-1.4 6c-0.6 3.4-0.6 5.4-0.6 5.4s-0.1-2 0.3-5.4c0.2-1.7 0.5-3.8 1.1-6.2s1.4-5 2.6-7.7c1.3-2.7 3-5.6 5.3-8.1 2.4-2.5 5.5-4.8 9-6.2 3.6-1.5 7.6-2.2 11.6-2.2 1 0 2 0 3 0.1 1 0 2 0.2 3.1 0.3 1 0.1 2 0.3 3 0.4l2.9 0.5c7.5 1.5 15.3 1.3 21.8-1.1 3.2-1.2 6.2-2.8 8.6-4.8 2.5-2 4.5-4.2 6.1-6.4 3.3-4.5 5.1-8.8 6.2-11.9 0.5-1.5 0.9-2.8 1.1-3.6 0.2-0.9 0.3-1.2 0.3-1.2 0.4-1.8 2.1-2.9 3.9-2.5 1.8 0.5 2.9 2.2 2.5 4z" /><path
       id="path32"
       fill="#fff"
       d="m687.8 289.1c-1.7 1.3-3.3 2.4-5.1 3.5-1.7 1.1-3.4 2.1-5.2 3.1s-3.5 1.9-5.3 2.8c-0.9 0.5-1.8 0.9-2.7 1.3s-1.8 0.8-2.8 1.2c-0.9 0.4-1.9 0.8-2.8 1.1-0.9 0.4-1.9 0.7-2.9 1-1.9 0.7-3.9 1.2-5.8 1.7l-3 0.7-3 0.5c-2 0.3-4.1 0.5-6.1 0.5-1 0.1-2.1 0-3.1 0l-1.5-0.1-1.5-0.2c-1-0.1-2-0.2-3.1-0.5-1-0.3-2-0.4-3-0.8-1-0.3-2-0.6-2.9-1l-2.8-1.3c-0.9-0.5-1.8-1.1-2.7-1.6-0.5-0.3-0.9-0.6-1.3-0.9l-1.2-0.9-1.2-0.9-1.1-1.1-1.1-1.1c-0.4-0.3-0.7-0.7-1-1.1l-2-2.3c-0.6-0.8-1.2-1.6-1.7-2.5-1.2-1.6-2.1-3.4-3.1-5.2-0.5-0.9-0.9-1.8-1.3-2.7l-1.2-2.7 0.1 0.2c-0.5-0.7-1.1-1.3-1.6-2-0.6-0.6-1.2-1.3-1.8-1.9-1.2-1.2-2.6-2.4-4-3.4-0.7-0.5-1.4-1-2.2-1.4-0.7-0.4-1.5-0.9-2.3-1.2-0.4-0.2-0.8-0.3-1.2-0.5s-0.8-0.3-1.2-0.4l-1.2-0.3c-0.4-0.1-0.8-0.2-1.3-0.2-0.8-0.1-1.7-0.1-2.6-0.1-0.4 0.1-0.9 0.1-1.3 0.2s-0.8 0.2-1.3 0.3l-1.2 0.4c-0.4 0.2-0.8 0.4-1.2 0.5-0.4 0.2-0.8 0.4-1.1 0.6-0.4 0.2-0.8 0.4-1.1 0.7l-1 0.8c-0.3 0.3-0.6 0.6-1 0.9-0.7 0.6-1.2 1.3-1.8 1.9-0.6 0.7-1.1 1.4-1.6 2.1l-1.5 2.2 1.3-2.3c0.5-0.7 1-1.5 1.5-2.2 0.6-0.7 1.1-1.4 1.7-2 0.3-0.3 0.6-0.6 0.9-1l1-0.9c0.3-0.3 0.7-0.5 1.1-0.8s0.7-0.5 1.1-0.7l1.2-0.6 1.3-0.5c0.4-0.1 0.9-0.2 1.3-0.4 0.4-0.1 0.9-0.2 1.4-0.2 0.9-0.1 1.8-0.1 2.7-0.1 0.5 0 0.9 0.1 1.4 0.2s0.9 0.2 1.3 0.3 0.9 0.2 1.3 0.4c0.4 0.1 0.9 0.3 1.3 0.5 0.9 0.3 1.7 0.7 2.5 1.2 0.8 0.4 1.6 0.9 2.3 1.4 1.5 1 2.9 2.1 4.3 3.3 0.7 0.6 1.3 1.2 2 1.9 0.6 0.6 1.2 1.3 1.9 2l0.1 0.1 0.1 0.1 1.3 2.6c0.5 0.8 0.8 1.7 1.4 2.5 1 1.6 2 3.3 3.2 4.8 0.6 0.7 1.1 1.5 1.8 2.2l1.9 2.1c0.3 0.4 0.7 0.7 1 1l1.1 0.9 1.1 0.9c0.4 0.3 0.8 0.5 1.1 0.8l1.1 0.8c0.4 0.3 0.8 0.5 1.2 0.7l2.4 1.3 2.6 1c0.9 0.3 1.8 0.5 2.7 0.8s1.8 0.4 2.7 0.6 1.8 0.3 2.8 0.3l1.4 0.1h1.4c0.9 0 1.9 0 2.8-0.1 1.9-0.1 3.7-0.4 5.6-0.7l2.8-0.6 2.7-0.8c1.8-0.6 3.6-1.2 5.4-1.9 0.9-0.3 1.8-0.7 2.6-1.1 0.9-0.4 1.7-0.8 2.6-1.2s1.7-0.8 2.6-1.3c0.8-0.4 1.7-0.9 2.5-1.3 1.7-0.9 3.3-1.9 4.9-2.9s3.2-2.1 4.7-3.2 3.1-2.2 4.5-3.4c1.4-1.1 3.4-0.9 4.6 0.4 1.1 1.4 0.9 3.4-0.4 4.6-0.1 0.4-0.1 0.4-0.2 0.5z" /><path
       id="path34"
       fill="#fff"
       d="m716.8 368.9s-0.1-0.1-0.4-0.3-0.6-0.4-1.1-0.8c-1-0.7-2.5-1.7-4.4-2.9-3.9-2.4-9.6-5.8-16.8-8.9-7.2-3.2-16-6.2-25.7-7.9-4.8-0.8-9.9-1.3-15.1-1.2-1.3 0-2.6 0.1-3.9 0.1-1.3 0.1-2.6 0.2-3.9 0.4l-1.9 0.3-1 0.1-0.4 0.1-0.5 0.1-3.9 0.9c-4.8 1.4-9.7 3.7-14.1 6.4l-3.3 2.1c-1.1 0.7-2.1 1.5-3.2 2.2-0.5 0.4-1 0.7-1.6 1.1l-1.5 1.2c-1 0.8-2 1.6-3 2.3-3.8 3.2-7.5 6.4-10.8 9.6-0.8 0.8-1.7 1.6-2.5 2.4l-2.3 2.3c-1.5 1.5-3 3-4.4 4.5-2.8 2.9-5.3 5.6-7.5 8s-4.1 4.5-5.7 6.3c-3.2 3.5-5 5.5-5 5.5s1.7-2.1 4.7-5.7c1.5-1.8 3.4-4 5.5-6.5s4.5-5.3 7.2-8.3c1.3-1.5 2.7-3.1 4.2-4.7 0.7-0.8 1.5-1.6 2.3-2.4s1.6-1.6 2.4-2.5c3.2-3.3 6.8-6.7 10.5-10.1 1-0.8 1.9-1.6 2.9-2.5l1.5-1.2 1.6-1.2c1-0.8 2.1-1.6 3.2-2.4s2.2-1.5 3.3-2.3c4.5-2.9 9.3-5.5 14.8-7.3l3.9-1 0.5-0.1h0.7l1-0.2 2-0.4c1.4-0.2 2.7-0.3 4.1-0.5 1.4-0.1 2.7-0.2 4.1-0.3 5.4-0.3 10.8 0 15.9 0.7 10.2 1.4 19.5 4.2 27.1 7.2 7.7 3 13.7 6.3 17.9 8.7 2.1 1.2 3.7 2.2 4.8 2.9 0.6 0.4 1 0.6 1.3 0.8s0.4 0.3 0.4 0.3c1.5 1 1.8 3.1 0.8 4.5-1 1.5-3.1 1.8-4.5 0.8l-0.2-0.2z" /><path
       id="path36"
       fill="#fff"
       d="m751.8 610.9s-1.3-0.1-3.5-0.5c-2.3-0.3-5.6-0.9-9.7-1.8-4.2-0.9-9.2-2-14.8-3.6-5.7-1.6-12-3.6-18.8-6.3-6.8-2.6-13.9-5.9-21.2-9.9-7.3-4.1-14.6-9-21.6-14.9-6.9-6-13.4-13-18.6-21s-9.3-17.1-11.6-26.5c-1.2-4.7-2-9.5-2.5-14.3-0.4-4.8-0.6-9.6-0.4-14.4 0.3-9.5 1.9-18.7 4-27.5 1.1-4.4 2.3-8.6 3.6-12.7l0.5-1.6 0.6-1.5c0.4-1 0.8-2 1.3-2.9 0.9-1.9 1.9-3.8 2.9-5.6 4.2-7.1 9.5-13.2 15.7-17.1 3.1-1.9 6.4-3.2 9.6-4s6.4-0.7 9.3-0.5c5.9 0.6 10.7 2.6 14.4 4.4 0.9 0.5 1.8 0.9 2.6 1.4s1.5 0.9 2.2 1.4c0.7 0.4 1.3 0.8 1.9 1.2s1.1 0.8 1.5 1.1c1.8 1.3 2.8 2 2.8 2s-1-0.7-2.8-1.9c-0.5-0.3-1-0.7-1.5-1-0.6-0.3-1.2-0.7-1.9-1.1s-1.4-0.9-2.3-1.3c-0.8-0.4-1.7-0.8-2.6-1.3-3.8-1.7-8.6-3.6-14.3-4.1-2.9-0.2-6-0.1-9.1 0.7s-6.3 2.1-9.2 4c-5.9 3.8-11 9.9-14.9 17-1 1.8-1.9 3.6-2.7 5.5s-1.6 3.8-2.2 5.9c-1.2 4.1-2.4 8.3-3.3 12.7-1.9 8.7-3.2 17.8-3.4 27.1-0.1 4.6 0.2 9.3 0.7 14 0.6 4.6 1.5 9.3 2.7 13.8 2.5 9 6.5 17.6 11.7 25.2s11.5 14.2 18.3 19.7c6.8 5.6 14 10.1 21.1 13.9s14.2 6.8 20.8 9.2 12.8 4.3 18.4 5.7c5.5 1.4 10.4 2.5 14.5 3.2 4 0.7 7.2 1.2 9.4 1.5s3.3 0.4 3.3 0.4c1.8 0.2 3.1 1.7 3 3.5-0.2 1.8-1.7 3.1-3.5 3-0.3-0.2-0.3-0.2-0.4-0.2z" /><path
       id="path38"
       fill="#fff"
       d="m639.9 756s-0.4-0.3-1.3-0.9c-0.8-0.6-2-1.4-3.4-2.5-2.9-2.2-6.9-5.4-11.4-9.6-4.6-4.2-9.7-9.3-14.6-15.3s-9.7-12.8-13.3-20.3c-1.8-3.7-3.3-7.6-4.4-11.5s-1.7-7.9-1.9-11.8 0.1-7.6 0.8-11.1 1.7-6.7 2.9-9.5 2.6-5.3 3.9-7.4 2.6-3.9 3.7-5.2c0.6-0.7 1-1.3 1.5-1.9 0.5-0.5 0.8-1 1.2-1.3 0.6-0.7 1-1.1 1-1.1s-0.3 0.4-0.9 1.1c-0.3 0.4-0.7 0.8-1.1 1.4s-0.9 1.2-1.4 1.9c-1 1.4-2.2 3.3-3.4 5.4-1.2 2.2-2.4 4.6-3.5 7.5-2.1 5.6-3.4 12.7-2.6 20.1 0.4 3.7 1.1 7.5 2.4 11.2 1.2 3.7 2.8 7.3 4.7 10.8 3.8 7 8.7 13.3 13.7 18.8s10.2 10.2 14.8 14 8.6 6.7 11.5 8.7c1.4 1 2.6 1.7 3.3 2.2 0.8 0.5 1.2 0.7 1.2 0.7h0.1c1.5 1 2 3 1 4.5s-3 2-4.5 1c0.1 0.1 0.1 0.1 0 0.1z" /><path
       id="path40"
       fill="#fff"
       d="m638.7 635.7s-0.2-0.5-0.6-1.4c-0.4-1-1-2.4-1.9-4.2-1.7-3.5-4.4-8.6-8.4-14-2-2.7-4.3-5.5-7.1-8.1s-6-4.9-9.8-6.4c-3.7-1.4-7.9-1.9-12-0.9-4.1 0.9-8.1 3.2-11.6 5.9-3.5 2.8-6.7 6.1-9.6 9.6-2.8 3.5-5.5 7.2-7.7 10.9s-3.9 7.5-5.3 11.2c-0.7 1.9-1.3 3.7-1.9 5.5s-1 3.5-1.6 5.2c-1.1 3.4-2.7 6.3-4.6 8.5s-4.2 3.5-6.2 4c-1 0.3-1.9 0.4-2.7 0.5-0.8 0-1.5 0.1-2 0-1.1-0.1-1.7-0.2-1.7-0.2s0.6 0 1.7 0.1c0.5 0 1.2-0.1 2-0.1 0.8-0.1 1.7-0.2 2.6-0.6 1.9-0.6 4.1-1.9 5.8-4.2 1.8-2.2 3.1-5.1 4.1-8.4 0.5-1.7 0.8-3.5 1.3-5.3s1.1-3.7 1.7-5.6c1.3-3.8 2.9-7.8 5-11.7 2.1-4 4.6-7.7 7.4-11.5 2.8-3.7 5.9-7.3 9.6-10.5 3.7-3.1 7.9-5.8 12.7-7.2s10-1.1 14.5 0.4 8.3 4.1 11.6 6.8c3.2 2.7 5.9 5.7 8.2 8.5 4.5 5.7 7.6 10.9 9.6 14.5 1 1.8 1.7 3.3 2.2 4.4l0.8 1.6c0.7 1.7 0 3.6-1.7 4.3-1.7 0.9-3.7 0.1-4.4-1.6z" /><path
       id="path42"
       fill="#fff"
       d="m636.8 540.3s-0.3-0.2-0.7-0.6c-0.5-0.4-1.2-0.9-2.2-1.6s-2.1-1.5-3.5-2.4-3-1.8-4.7-2.8c-1.8-1-3.7-1.9-5.8-2.9-2.1-0.9-4.4-1.8-6.8-2.5s-4.9-1.3-7.5-1.5c-1.3-0.2-2.6-0.1-3.9-0.2-1.3 0.1-2.6 0.1-3.9 0.4-1.3 0.2-2.6 0.6-3.9 0.9-0.6 0.2-1.2 0.5-1.8 0.7s-1.2 0.5-1.8 0.8-1.1 0.6-1.7 0.9-1.1 0.7-1.6 1.1c-1.1 0.7-2 1.6-2.9 2.4-0.2 0.2-0.5 0.4-0.7 0.6l-0.6 0.7c-0.4 0.5-0.8 0.9-1.2 1.4-0.4 0.4-0.8 0.9-1.1 1.4s-0.7 1-1 1.4c-0.2 0.2-0.3 0.5-0.5 0.7s-0.3 0.5-0.4 0.7c-0.3 0.5-0.6 1-0.8 1.5-0.3 0.5-0.5 0.9-0.8 1.4-0.2 0.5-0.4 1-0.7 1.4l-1.2 2.7c-0.4 0.9-0.6 1.7-0.9 2.5s-0.6 1.5-0.8 2.2-0.4 1.3-0.6 1.9c-0.7 2.3-1.1 3.6-1.1 3.6s0.3-1.3 0.9-3.7c0.2-0.6 0.3-1.2 0.5-1.9s0.5-1.4 0.7-2.2c0.3-0.8 0.5-1.7 0.8-2.5 0.4-0.9 0.7-1.8 1.1-2.7l0.6-1.5c0.2-0.5 0.5-1 0.8-1.5s0.5-1 0.8-1.5c0.1-0.3 0.3-0.5 0.4-0.8 0.2-0.2 0.3-0.5 0.5-0.7 0.3-0.5 0.6-1 1-1.5 0.3-0.5 0.6-1.1 1.1-1.5l1.2-1.5 0.6-0.8 0.7-0.7c0.9-0.9 1.8-1.9 3-2.7 0.5-0.4 1.1-0.9 1.6-1.2 0.6-0.4 1.2-0.7 1.8-1.1s1.2-0.7 1.9-1c0.6-0.3 1.3-0.6 1.9-0.8 1.3-0.4 2.7-0.9 4.1-1.2 1.4-0.4 2.8-0.4 4.2-0.6 1.4 0 2.8-0.1 4.2 0 2.8 0.1 5.5 0.6 8.1 1.2s5 1.4 7.3 2.3c2.2 0.9 4.3 1.8 6.2 2.7s3.6 1.8 5.1 2.7 2.8 1.6 3.8 2.3 1.8 1.2 2.4 1.6c0.5 0.4 0.8 0.6 0.8 0.6 0.9 0.6 1.1 1.9 0.5 2.8s-1.9 1.1-2.8 0.5c-0.6 0.2-0.7 0.2-0.7 0.1z" /><path
       id="path44"
       fill="#fff"
       d="m586.2 439.8s-0.9 0.2-2.7 0.3-4.3 0.2-7.6-0.2-7.2-1.2-11.4-3.2c-4.2-1.9-8.4-5.2-11.8-9.9-3.4-4.6-5.6-10.6-6.7-17s-1.4-13.3-0.8-20.4c0.1-1.8 0.3-3.5 0.5-5.3s0.4-3.6 0.7-5.4l0.9-5.4c0.3-1.8 0.8-3.6 1.1-5.4 1.5-7.3 3.6-14.5 5.8-21.7 1.1-3.6 2.4-7.1 3.6-10.7l0.4-1.3c0.1-0.4 0.3-0.9 0.4-1.3 0.2-0.8 0.5-1.7 0.6-2.5 0.4-1.7 0.6-3.5 0.7-5.2 0.2-3.5-0.2-6.9-1.1-10.2l-0.2-0.6-0.1-0.3s0.1 0.2 0 0v-0.1l-0.1-0.2c-0.2-0.4-0.3-0.9-0.5-1.1-0.3-0.6-0.7-1.2-1.2-1.8-0.9-1.2-2.1-2.3-3.4-3.2-2.5-1.8-5.5-2.9-8.5-3.2-3-0.4-6 0.1-8.7 1-2.8 0.9-5.3 2.3-7.6 3.9-2.3 1.7-4.3 3.5-6.2 5.4-3.7 3.9-6.5 8-8.8 11.8-0.6 0.9-1.1 1.9-1.6 2.8s-1 1.8-1.5 2.6c-0.9 1.7-1.7 3.3-2.4 4.7-0.7 1.5-1.3 2.8-1.8 3.9-0.5 1.2-0.9 2.1-1.2 2.9-0.7 1.6-1 2.4-1 2.4v0.1c-0.7 1.7-2.6 2.4-4.3 1.7s-2.4-2.6-1.7-4.3v-0.1s0.4-0.9 1.1-2.5c0.4-0.8 0.8-1.8 1.4-3s1.2-2.5 2-4c0.7-1.5 1.7-3.1 2.6-4.9 0.5-0.9 1.1-1.8 1.6-2.7 0.6-0.9 1.1-1.9 1.8-2.9 2.6-3.9 5.7-8.3 9.9-12.4 2.1-2.1 4.5-4.1 7.1-5.9 2.7-1.8 5.7-3.4 9.1-4.4s7.1-1.5 10.8-1 7.4 1.9 10.6 4.3c1.6 1.2 3 2.6 4.2 4.2 0.6 0.8 1.1 1.7 1.6 2.7 0.3 0.5 0.4 0.9 0.5 1.3l0.2 0.4 0.1 0.3 0.2 0.7c1 3.7 1.3 7.7 1 11.6-0.2 1.9-0.5 3.9-0.9 5.8-0.2 1-0.5 1.9-0.8 2.8-0.2 0.5-0.3 0.9-0.5 1.4l-0.5 1.3c-1.3 3.5-2.6 7-3.8 10.5-2.4 7.1-4.6 14.2-6.4 21.3-0.4 1.8-0.9 3.5-1.3 5.3-0.3 1.8-0.7 3.6-1 5.3-0.4 1.8-0.6 3.5-0.8 5.3s-0.6 3.5-0.7 5.2c-0.8 6.9-0.7 13.7 0.2 20 1 6.3 2.9 12.1 6.1 16.7 3.1 4.6 7.1 7.9 11.2 9.9s8 3 11.2 3.4c3.2 0.5 5.8 0.4 7.6 0.4 1.9 0.2 2.8 0.1 2.8 0.1z" /><path
       id="path46"
       fill="#fff"
       d="m723.2 654.6s-0.2-0.1-0.6-0.2-1.1-0.4-1.9-0.6c-1.6-0.5-4-1.3-6.8-2-2.8-0.8-6.2-1.6-9.8-2.2-1.8-0.3-3.7-0.6-5.6-0.8s-3.9-0.4-5.8-0.5c-1.9 0-3.9 0-5.8 0.1s-3.8 0.5-5.5 0.9c-0.9 0.2-1.7 0.5-2.6 0.8-0.4 0.2-0.8 0.3-1.2 0.5l-0.6 0.2-0.6 0.3c-0.4 0.2-0.7 0.4-1.1 0.6s-0.7 0.4-1 0.7c-0.3 0.2-0.6 0.4-0.9 0.7s-0.6 0.5-0.8 0.7c-0.3 0.3-0.6 0.5-0.8 0.7-0.2 0.3-0.4 0.5-0.7 0.8-0.2 0.3-0.4 0.5-0.6 0.8s-0.3 0.5-0.5 0.8c-0.7 1-1 2-1.4 2.8-0.3 0.8-0.5 1.5-0.6 1.9-0.1 0.5-0.2 0.7-0.2 0.7s0-0.2 0.1-0.7 0.2-1.2 0.4-2c0.3-0.8 0.5-1.9 1.2-3 0.1-0.3 0.3-0.6 0.4-0.9l0.6-0.9 0.6-0.9c0.2-0.3 0.5-0.6 0.7-0.9 0.3-0.3 0.5-0.6 0.8-0.9s0.6-0.5 0.9-0.8 0.6-0.6 1-0.8 0.7-0.5 1.1-0.7l0.6-0.4 0.6-0.3 1.2-0.6c0.9-0.4 1.7-0.8 2.6-1.1 1.8-0.6 3.8-1.2 5.8-1.5 2-0.4 4-0.6 6.1-0.8 2.1-0.1 4.1-0.2 6.1-0.1 2 0 4 0.1 5.9 0.3 3.8 0.3 7.4 0.8 10.4 1.2 3 0.5 5.5 1 7.3 1.4 0.9 0.2 1.6 0.4 2.1 0.5s0.7 0.2 0.7 0.2c1.8 0.4 2.8 2.2 2.4 4s-2.2 2.8-4 2.4c0.1-0.3 0-0.3-0.2-0.4z" /><path
       id="path48"
       fill="#fff"
       d="m745.7 472.3l-0.1-0.1-0.3-0.3c-0.3-0.3-0.9-0.8-1.6-1.3s-1.7-0.9-2.7-1.2c-1.1-0.2-2.2-0.2-3.5 0.3-0.6 0.2-1.3 0.7-2 1.1-0.3 0.3-0.7 0.6-1 0.9-0.5 0.5-0.8 0.7-1.3 1.2-1.9 1.6-3.9 3-6.1 4.3-4.3 2.6-9.2 4.8-14.3 6.4-2.5 0.8-5.2 1.4-7.8 1.8-2.6 0.3-5.2 0.4-7.7 0.2s-4.9-0.8-7-1.6c-2.1-0.9-4-2-5.5-3.3-0.8-0.6-1.4-1.3-2.1-1.9-0.6-0.7-1.2-1.3-1.6-2-0.5-0.7-0.9-1.3-1.3-1.8-0.3-0.6-0.6-1.2-0.9-1.7s-0.5-0.9-0.7-1.4c-0.2-0.4-0.3-0.7-0.5-1-0.2-0.6-0.4-0.8-0.4-0.8s0.2 0.3 0.4 0.8c0.1 0.3 0.3 0.6 0.5 1s0.4 0.8 0.8 1.3c0.3 0.5 0.7 1 1 1.6 0.4 0.5 0.9 1.1 1.4 1.7s1.1 1.2 1.7 1.8c0.7 0.6 1.3 1.2 2.1 1.7 1.5 1.1 3.4 2 5.4 2.7s4.3 1 6.6 1c4.7 0.1 9.6-1.1 14.3-3s9.1-4.3 12.9-7.1c1.9-1.3 3.7-2.8 5-4.2 0.3-0.3 0.8-0.8 1-1.1 0.4-0.5 0.9-0.9 1.3-1.3 0.9-0.8 1.9-1.6 3.1-2.1 2.2-1.2 4.8-1.4 6.8-1.1s3.7 1 4.9 1.6 2.1 1.3 2.7 1.7c0.3 0.2 0.5 0.4 0.7 0.6l0.2 0.2c1.3 1.2 1.4 3.3 0.2 4.6s-3.3 1.4-4.6 0.2c0.1-0.2 0.1-0.3 0-0.4z" /><path
       id="path50"
       fill="#fff"
       d="m504.4 485.6s0.2 0.2 0.7 0.5c0.4 0.4 1.1 0.9 1.9 1.5 1.6 1.4 3.9 3.4 6.7 6.1s6.1 6.2 9.6 10.4 7.2 9.2 10.6 15 6.6 12.5 8.8 19.9c2.1 7.5 3.3 15.8 2.5 24.3s-3.4 17-7.5 24.9c-0.5 1-1 2-1.6 2.9l-1.7 2.9-1.7 2.8c-0.6 0.9-1 1.8-1.6 2.7-2 3.7-3.6 7.7-4.7 11.8-2.3 8.2-2.8 16.9-2.2 25.4 0.7 8.5 2.5 16.7 4.9 24.5s5.4 15.1 8.6 21.9 6.5 13.1 9.9 18.7c6.6 11.3 13 20.3 17.5 26.4 4.6 6.1 7.5 9.5 7.5 9.5s-2.9-3.3-7.7-9.3c-4.7-6-11.3-14.8-18.2-26.1-3.5-5.6-7-11.8-10.3-18.6-3.4-6.8-6.6-14.1-9.2-21.9s-4.7-16.2-5.6-24.9-0.6-17.7 1.6-26.5c1.1-4.4 2.7-8.6 4.7-12.6 0.5-1 1-2.1 1.6-3l0.8-1.4 0.8-1.4 1.6-2.8c0.5-0.9 1.1-1.8 1.5-2.8 3.7-7.5 6-15.6 6.5-23.4 0.5-7.9-0.7-15.6-2.9-22.5s-5.4-13.1-8.7-18.5c-3.4-5.4-7-10.1-10.4-14s-6.7-7.1-9.4-9.7-5-4.4-6.5-5.7c-0.8-0.6-1.4-1.1-1.8-1.4s-0.6-0.4-0.6-0.4h-0.1c-1.4-1.1-1.7-3.1-0.7-4.6 1.2-1.4 3.3-1.7 4.8-0.6-0.1 0 0 0 0 0z" /><path
       id="path52"
       fill="#fff"
       d="m639.3 396.2s-1 2.7-2.8 7.4c-0.4 1.2-0.9 2.5-1.5 3.9s-1.2 2.9-1.9 4.5-1.4 3.3-2.2 5.1-1.8 3.6-2.7 5.6c-1 1.9-1.9 4-3 6s-2.3 4.1-3.5 6.3c-0.3 0.5-0.6 1.1-0.9 1.6s-0.7 1.1-1 1.6c-0.7 1.1-1.4 2.2-2.1 3.3s-1.4 2.2-2.1 3.3l-2.4 3.3-2.4 3.3c-0.8 1.1-1.7 2.1-2.6 3.2l-2.7 3.3c-0.4 0.6-0.9 1.1-1.4 1.6l-1.5 1.6c-1 1-2 2.1-2.9 3.1-1 1-2.1 2-3.1 3-1.1 1-2.1 2-3.2 3l-3.4 2.8c-2.2 1.9-4.7 3.5-7 5.2l-1.8 1.2-1.8 1.1-1.8 1.1c-0.6 0.4-1.2 0.8-1.9 1.1-2.5 1.3-5 2.7-7.7 3.8-2.6 1.2-5.2 2.2-7.8 3.1-1.3 0.5-2.6 0.8-3.9 1.3-1.3 0.4-2.6 0.8-3.9 1.1s-2.6 0.6-3.8 0.9c-1.3 0.2-2.5 0.5-3.8 0.7-5 0.8-9.8 1.3-14.2 1.4s-8.5 0-12.1-0.4c-3.6-0.3-6.7-0.8-9.3-1.3s-4.6-1-5.9-1.4c-0.7-0.2-1.2-0.3-1.6-0.5-0.4-0.1-0.6-0.2-0.6-0.2-1.7-0.6-2.6-2.4-2.1-4.1 0.6-1.7 2.4-2.6 4.1-2.1h0.1l0.1 0.1s0.1 0 0.4 0.1 0.7 0.3 1.3 0.4c1.2 0.4 3 0.9 5.4 1.4s5.2 1.1 8.6 1.5c3.4 0.5 7.2 0.7 11.4 0.8s8.7-0.2 13.5-0.9c1.2-0.2 2.4-0.4 3.6-0.5 1.2-0.3 2.4-0.5 3.7-0.8 1.2-0.2 2.5-0.6 3.7-0.9 1.2-0.4 2.5-0.6 3.8-1.1 2.5-0.8 5-1.6 7.5-2.7 2.5-1 5-2.2 7.5-3.4 0.6-0.3 1.2-0.6 1.8-1l1.8-1 1.8-1c0.6-0.3 1.2-0.7 1.8-1.1 2.3-1.6 4.8-3 6.9-4.8l3.4-2.6c1.1-0.9 2.1-1.8 3.2-2.8 1.1-0.9 2.1-1.8 3.2-2.8l3-3 1.5-1.5c0.5-0.5 1-1 1.4-1.5 0.9-1 1.8-2.1 2.7-3.1s1.9-2 2.7-3.1 1.7-2.1 2.5-3.2 1.6-2.1 2.4-3.1c0.7-1.1 1.5-2.1 2.2-3.2s1.5-2.1 2.2-3.1c0.4-0.5 0.7-1 1.1-1.5 0.3-0.5 0.6-1.1 1-1.6 1.3-2.1 2.5-4.1 3.7-6.1s2.2-4 3.2-5.9 2-3.7 2.9-5.4c0.8-1.8 1.6-3.4 2.4-5 0.7-1.6 1.4-3.1 2.1-4.4 0.6-1.4 1.1-2.7 1.6-3.8 2-4.5 3.1-7.2 3.1-7.2z" /><path
       inkscape:connector-curvature="0"
       id="path839"
       d="m 539.34925,355.65567 38.96175,16.70643 44.29103,-31.11749 36.32695,36.28708 -32.61447,46.28699 15.6485,39.6403 53.45263,9.18154 v 51.3967 l -55.64818,9.58073 -16.94587,39.46069 31.27705,44.0714 -36.38679,36.34698 -46.02752,-32.6943 -39.72014,15.64852 -9.38115,53.53239 h -51.37676 l -9.2614,-55.86766 -39.52054,-16.88609 -44.35085,31.43682 -36.14736,-36.40681 32.69431,-46.20714 -15.64857,-39.72014 -53.73198,-9.32128 V 465.8342 l 56.14714,-9.58073 16.74633,-39.26109 -31.2971,-44.35084 36.26715,-36.28708 46.28693,32.69431 39.56047,-15.64857 9.22884,-53.2382 51.36944,-0.37385 z"
       style="fill:#ff8080;stroke:#ffffff;stroke-width:19.95987892px;stroke-linecap:butt;stroke-linejoin:miter;stroke-opacity:1;opacity:1" /><circle
       r="121.08164"
       id="circle4"
       style="fill:#00aeef;stroke:none;stroke-width:2.42163253;fill-opacity:1"
       cy="495.58752"
       cx="499.60199" /><circle
       id="circle6"
       style="fill:#ffffff;stroke:none;stroke-width:2.42163253"
       r="36.324493"
       cy="495.58752"
       cx="451.1694" /><circle
       id="circle8"
       style="fill:#333333;stroke:none;stroke-width:2.42163253;fill-opacity:1"
       r="12.108165"
       cy="495.58752"
       cx="451.1694" /><circle
       id="circle10"
       style="fill:#ffffff;stroke:none;stroke-width:2.42163253"
       r="36.324493"
       cy="495.58752"
       cx="548.03473" /><circle
       id="circle12"
       style="fill:#1a1a1a;stroke:none;stroke-width:2.42163253;fill-opacity:1"
       r="12.108165"
       cy="495.58752"
       cx="548.03473" /></g></svg>